<svg width="128" height="33" viewBox="0 0 128 33" fill="none" xmlns="http://www.w3.org/2000/svg">
<path d="M13.2969 3.3125C13.151 3.52083 12.9948 3.71875 12.8281 3.90625C12.6719 4.08333 12.474 4.22396 12.2344 4.32812C12.1094 5.04688 12.0052 5.77083 11.9219 6.5C11.849 7.22917 11.7656 7.95833 11.6719 8.6875C11.5885 9.41667 11.4896 10.1458 11.375 10.875C11.2708 11.5938 11.125 12.3073 10.9375 13.0156L10.9531 13.2031C10.974 13.4115 10.9479 13.6094 10.875 13.7969C10.8021 13.9844 10.7708 14.1875 10.7812 14.4062C10.6354 14.7708 10.5104 15.1771 10.4062 15.625C10.3021 16.0625 10.2396 16.4792 10.2188 16.875C10.1146 17.0521 10.026 17.2448 9.95312 17.4531C9.89062 17.6615 9.82292 17.875 9.75 18.0938C9.6875 18.3021 9.61458 18.5052 9.53125 18.7031C9.44792 18.8906 9.33854 19.0625 9.20312 19.2188C9.17188 19.4583 9.10938 19.6823 9.01562 19.8906C8.93229 20.1094 8.83333 20.3229 8.71875 20.5312C8.61458 20.7396 8.51042 20.9427 8.40625 21.1406C8.3125 21.349 8.24479 21.5677 8.20312 21.7969C8.02604 22.0677 7.84896 22.3281 7.67188 22.5781C7.49479 22.8385 7.33333 23.1094 7.1875 23.3906C7.05208 23.4531 6.93229 23.5208 6.82812 23.5938C6.73438 23.6771 6.64062 23.75 6.54688 23.8125C6.45312 23.8854 6.34375 23.9479 6.21875 24C6.10417 24.0521 5.96354 24.0781 5.79688 24.0781C5.75521 24.0781 5.71354 24.0729 5.67188 24.0625C5.64062 24.0625 5.60417 24.0625 5.5625 24.0625C5.41667 23.9479 5.27083 23.8333 5.125 23.7188C4.97917 23.6146 4.82292 23.5208 4.65625 23.4375C4.65625 23.375 4.64583 23.3229 4.625 23.2812C4.61458 23.2396 4.60417 23.1979 4.59375 23.1562C4.58333 23.1146 4.57812 23.0729 4.57812 23.0312C4.57812 22.9896 4.58854 22.9375 4.60938 22.875C4.51562 22.8125 4.40625 22.6979 4.28125 22.5312C4.16667 22.375 4.10938 22.2396 4.10938 22.125C4.10938 22.0208 4.14583 21.9688 4.21875 21.9688C4.19792 21.8646 4.16146 21.7604 4.10938 21.6562C4.06771 21.5625 4.04688 21.4635 4.04688 21.3594C4.04688 21.2865 4.06771 21.2083 4.10938 21.125C3.99479 20.8542 3.89062 20.5729 3.79688 20.2812C3.70312 20 3.64062 19.7083 3.60938 19.4062C3.50521 19.2708 3.42188 19.1146 3.35938 18.9375C3.30729 18.75 3.26562 18.5573 3.23438 18.3594C3.20312 18.1615 3.17708 17.9688 3.15625 17.7812C3.13542 17.5833 3.10938 17.401 3.07812 17.2344C3.06771 17.1719 3.04167 17.0729 3 16.9375C2.95833 16.7917 2.9375 16.6927 2.9375 16.6406C2.9375 16.5781 2.94792 16.5312 2.96875 16.5C3 16.4688 3.02604 16.4271 3.04688 16.375C2.92188 15.875 2.81771 15.3698 2.73438 14.8594C2.66146 14.349 2.58854 13.8385 2.51562 13.3281C2.45312 12.8177 2.375 12.3125 2.28125 11.8125C2.19792 11.3021 2.07812 10.8021 1.92188 10.3125V10.1719C1.92188 9.83854 1.79167 9.57292 1.53125 9.375C1.58333 9.21875 1.60938 9.08854 1.60938 8.98438C1.60938 8.84896 1.58854 8.71875 1.54688 8.59375C1.51562 8.46875 1.47917 8.34375 1.4375 8.21875C1.39583 8.09375 1.36458 7.96875 1.34375 7.84375C1.33333 7.71875 1.34375 7.59375 1.375 7.46875C1.26042 7.34375 1.16667 7.20833 1.09375 7.0625C1.02083 6.91667 0.927083 6.79167 0.8125 6.6875L0.796875 6.59375C0.796875 6.54167 0.8125 6.49479 0.84375 6.45312C0.864583 6.41146 0.875 6.36458 0.875 6.3125C0.875 6.23958 0.859375 6.17708 0.828125 6.125C0.786458 6.07292 0.744792 6.02604 0.703125 5.98438C0.651042 5.94271 0.609375 5.90104 0.578125 5.85938C0.536458 5.81771 0.515625 5.77083 0.515625 5.71875C0.515625 5.59375 0.557292 5.49479 0.640625 5.42188C0.723958 5.34896 0.817708 5.28646 0.921875 5.23438C1.02604 5.17188 1.125 5.10938 1.21875 5.04688C1.32292 4.98438 1.39062 4.89583 1.42188 4.78125C1.50521 4.80208 1.58854 4.81771 1.67188 4.82812C1.75521 4.82812 1.83854 4.84896 1.92188 4.89062C1.93229 4.88021 1.9375 4.86458 1.9375 4.84375C1.9375 4.8125 1.88542 4.78646 1.78125 4.76562C1.6875 4.73438 1.625 4.69792 1.59375 4.65625C1.67708 4.63542 1.73958 4.625 1.78125 4.625C1.98958 4.625 2.1875 4.67708 2.375 4.78125C2.57292 4.88542 2.76042 4.99479 2.9375 5.10938C2.95833 5.20312 2.96354 5.30208 2.95312 5.40625C2.94271 5.5 2.97396 5.58854 3.04688 5.67188C3.03646 5.72396 3.03125 5.77083 3.03125 5.8125C3.04167 5.85417 3.04688 5.89583 3.04688 5.9375C3.04688 5.98958 3.03646 6.03646 3.01562 6.07812C3.00521 6.10938 2.97917 6.125 2.9375 6.125C3.01042 6.25 3.05729 6.40104 3.07812 6.57812C3.10938 6.75521 3.13542 6.9375 3.15625 7.125C3.1875 7.3125 3.22396 7.49479 3.26562 7.67188C3.30729 7.84896 3.38542 8.00521 3.5 8.14062C3.47917 8.20312 3.46354 8.26562 3.45312 8.32812C3.45312 8.39062 3.45312 8.45833 3.45312 8.53125C3.45312 8.86458 3.49479 9.19271 3.57812 9.51562C3.66146 9.83854 3.70312 10.1667 3.70312 10.5C3.70312 10.6979 3.67188 10.8802 3.60938 11.0469C3.60938 11.1406 3.64062 11.2188 3.70312 11.2812C3.76562 11.3333 3.80729 11.4062 3.82812 11.5C3.77604 11.625 3.75 11.7448 3.75 11.8594C3.75 12.099 3.79688 12.3281 3.89062 12.5469C3.98438 12.7552 4.03125 12.974 4.03125 13.2031C4.03125 13.276 4.02083 13.3438 4 13.4062C3.97917 13.4688 3.95833 13.526 3.9375 13.5781C4.03125 13.6719 4.07812 13.7917 4.07812 13.9375C4.08854 14.0833 4.13542 14.2031 4.21875 14.2969C4.20833 14.349 4.19792 14.401 4.1875 14.4531C4.1875 14.5052 4.16146 14.5469 4.10938 14.5781C4.16146 14.651 4.1875 14.75 4.1875 14.875C4.19792 14.9896 4.24479 15.0573 4.32812 15.0781C4.30729 15.1302 4.29167 15.1771 4.28125 15.2188C4.27083 15.2604 4.26562 15.3073 4.26562 15.3594C4.26562 15.474 4.28125 15.5781 4.3125 15.6719L4.40625 15.9531C4.4375 16.0469 4.45833 16.1458 4.46875 16.25C4.48958 16.3542 4.47917 16.4688 4.4375 16.5938C4.47917 16.6562 4.51042 16.7292 4.53125 16.8125C4.5625 16.8958 4.58854 16.9844 4.60938 17.0781C4.63021 17.1615 4.66146 17.2396 4.70312 17.3125C4.74479 17.375 4.80729 17.4167 4.89062 17.4375C4.90104 17.5 4.875 17.5312 4.8125 17.5312C4.76042 17.5312 4.73438 17.5573 4.73438 17.6094C4.73438 17.6927 4.76562 17.7969 4.82812 17.9219C4.89062 18.0365 4.94792 18.1198 5 18.1719C4.98958 18.2135 4.98438 18.2552 4.98438 18.2969V18.4375C4.98438 18.5833 5.00521 18.7344 5.04688 18.8906C5.08854 19.0365 5.125 19.1823 5.15625 19.3281C5.19792 19.4844 5.22917 19.6354 5.25 19.7812C5.27083 19.9271 5.26042 20.0625 5.21875 20.1875C5.30208 20.3333 5.375 20.4896 5.4375 20.6562C5.5 20.8229 5.59896 20.9635 5.73438 21.0781C5.73438 21.2552 5.77083 21.4219 5.84375 21.5781C5.91667 21.7448 6.01042 21.901 6.125 22.0469C6.22917 22.0469 6.30729 22.0104 6.35938 21.9375C6.41146 21.875 6.45312 21.8021 6.48438 21.7188C6.51562 21.6354 6.55208 21.5573 6.59375 21.4844C6.63542 21.4115 6.70312 21.3698 6.79688 21.3594C6.80729 21.2552 6.83333 21.1667 6.875 21.0938C6.92708 21.0312 6.97396 20.9635 7.01562 20.8906C7.06771 20.8177 7.10938 20.7396 7.14062 20.6562C7.18229 20.5729 7.19792 20.4688 7.1875 20.3438L7.35938 20.2969C7.41146 20.0156 7.48958 19.7604 7.59375 19.5312C7.70833 19.3125 7.83333 19.0833 7.96875 18.8438V18.7656C7.96875 18.6615 7.98438 18.5729 8.01562 18.5C8.04688 18.4271 8.05208 18.3333 8.03125 18.2188C8.10417 18.1979 8.15625 18.1562 8.1875 18.0938C8.21875 18.0312 8.24479 17.9688 8.26562 17.9062C8.28646 17.8333 8.30729 17.7656 8.32812 17.7031C8.35938 17.6302 8.40625 17.5781 8.46875 17.5469V17.4219C8.45833 17.3281 8.46354 17.2396 8.48438 17.1562C8.51562 17.0625 8.51042 16.9688 8.46875 16.875C8.55208 16.8438 8.61458 16.7917 8.65625 16.7188C8.69792 16.6458 8.72917 16.5677 8.75 16.4844C8.78125 16.401 8.79688 16.3125 8.79688 16.2188C8.80729 16.125 8.8125 16.0417 8.8125 15.9688C8.88542 15.875 8.9375 15.7656 8.96875 15.6406C9 15.5052 9.02604 15.3698 9.04688 15.2344C9.06771 15.099 9.09375 14.9688 9.125 14.8438C9.16667 14.7188 9.22917 14.6094 9.3125 14.5156C9.29167 14.4635 9.28125 14.4167 9.28125 14.375V14.2344C9.28125 14.0365 9.3125 13.8594 9.375 13.7031C9.4375 13.5365 9.49479 13.3594 9.54688 13.1719C9.68229 12.7031 9.77604 12.224 9.82812 11.7344C9.89062 11.2344 9.97917 10.7448 10.0938 10.2656C10.1042 10.2135 10.125 10.1302 10.1562 10.0156C10.1875 9.90104 10.2188 9.78646 10.25 9.67188C10.2812 9.54688 10.3073 9.4375 10.3281 9.34375C10.3594 9.23958 10.375 9.17188 10.375 9.14062C10.375 9.05729 10.3542 9 10.3125 8.96875C10.2812 8.9375 10.2656 8.88542 10.2656 8.8125C10.3281 8.71875 10.3698 8.59896 10.3906 8.45312C10.4115 8.30729 10.4271 8.15625 10.4375 8C10.4479 7.83333 10.4479 7.67708 10.4375 7.53125C10.4375 7.375 10.4375 7.23958 10.4375 7.125C10.4375 7.01042 10.4635 6.86458 10.5156 6.6875C10.5677 6.51042 10.6042 6.35417 10.625 6.21875C10.6771 5.86458 10.7083 5.51562 10.7188 5.17188C10.7396 4.81771 10.7604 4.46354 10.7812 4.10938C10.8542 4.06771 10.9062 4.01562 10.9375 3.95312C10.9688 3.88021 10.9844 3.80729 10.9844 3.73438C10.9844 3.61979 10.9688 3.51042 10.9375 3.40625C10.9167 3.30208 10.9062 3.19271 10.9062 3.07812C10.9062 3.02604 10.9115 2.97396 10.9219 2.92188C10.9323 2.85938 10.9583 2.80729 11 2.76562C10.9896 2.69271 10.9792 2.61979 10.9688 2.54688C10.9688 2.47396 10.9427 2.41146 10.8906 2.35938C10.9427 2.22396 10.9688 2.08854 10.9688 1.95312C10.9688 1.82812 10.9531 1.70312 10.9219 1.57812C10.901 1.45312 10.8906 1.32292 10.8906 1.1875C10.8906 0.927083 11 0.739583 11.2188 0.625H11.4375C11.5417 0.625 11.6458 0.619792 11.75 0.609375C11.8542 0.598958 11.9635 0.567708 12.0781 0.515625C12.2135 0.661458 12.3542 0.822917 12.5 1C12.6458 1.16667 12.7708 1.34896 12.875 1.54688C12.9792 1.74479 13.0573 1.94792 13.1094 2.15625C13.1615 2.36458 13.1667 2.58333 13.125 2.8125C13.1667 2.89583 13.1927 2.97917 13.2031 3.0625C13.2135 3.14583 13.2448 3.22917 13.2969 3.3125ZM10.1094 11.8281C10.0677 11.8177 10.0365 11.8021 10.0156 11.7812C10.0052 11.75 9.97396 11.7292 9.92188 11.7188V11.8906H10.0469L10.1094 11.8281ZM23.2344 9.95312C23.1719 10.0469 23.1354 10.151 23.125 10.2656C23.1146 10.3802 23.1094 10.4844 23.1094 10.5781C23.1094 10.7031 23.1094 10.8281 23.1094 10.9531C23.1198 11.0677 23.125 11.1823 23.125 11.2969V11.5312C23.1042 11.6042 23.0729 11.6771 23.0312 11.75C22.9896 11.8229 22.9583 11.8958 22.9375 11.9688C22.7917 12.3542 22.7188 12.7396 22.7188 13.125V13.1562C22.6667 13.2812 22.6146 13.3958 22.5625 13.5C22.5208 13.6042 22.4792 13.7083 22.4375 13.8125C22.3958 13.9062 22.3646 14.0104 22.3438 14.125C22.3229 14.2292 22.3177 14.3542 22.3281 14.5C22.1823 14.8646 21.9896 15.1979 21.75 15.5C21.5104 15.7917 21.276 16.0938 21.0469 16.4062C20.8281 16.4896 20.625 16.599 20.4375 16.7344C20.2604 16.8698 20.0885 17.0208 19.9219 17.1875C19.599 17.2917 19.2812 17.4115 18.9688 17.5469C18.6562 17.6823 18.375 17.8646 18.125 18.0938C17.9271 18.1146 17.7292 18.1458 17.5312 18.1875C17.3333 18.2292 17.1406 18.2917 16.9531 18.375H16.7656C16.6719 18.375 16.6042 18.3542 16.5625 18.3125C16.4271 18.3854 16.2865 18.4375 16.1406 18.4688C15.9948 18.4896 15.849 18.5 15.7031 18.5C15.5156 18.5 15.3281 18.4896 15.1406 18.4688C14.9635 18.4375 14.7812 18.4062 14.5938 18.375C14.4896 18.2292 14.3438 18.1198 14.1562 18.0469C13.9688 17.9635 13.8021 17.8854 13.6562 17.8125C13.3542 17.3958 13.1354 16.9948 13 16.6094C12.8646 16.2135 12.724 15.7708 12.5781 15.2812C12.599 15.1354 12.6354 14.9948 12.6875 14.8594C12.7396 14.7135 12.7604 14.5573 12.75 14.3906C12.9375 13.849 13.1823 13.3594 13.4844 12.9219C13.7969 12.474 14.151 12.0469 14.5469 11.6406C14.5469 11.5781 14.5573 11.526 14.5781 11.4844C14.6094 11.4427 14.6146 11.3802 14.5938 11.2969C14.6042 11.3073 14.625 11.3125 14.6562 11.3125C14.7396 11.3125 14.7917 11.2917 14.8125 11.25C14.8333 11.1979 14.8385 11.1406 14.8281 11.0781C15.2031 10.8385 15.5417 10.5625 15.8438 10.25C16.1562 9.9375 16.5104 9.67708 16.9062 9.46875C16.9375 9.375 16.9896 9.29688 17.0625 9.23438C17.1354 9.17188 17.1927 9.09896 17.2344 9.01562C17.5677 8.92188 17.8698 8.78125 18.1406 8.59375C18.4115 8.40625 18.6979 8.23958 19 8.09375C19.1667 8 19.3229 7.9375 19.4688 7.90625C19.625 7.86458 19.7917 7.82292 19.9688 7.78125C20.0312 7.76042 20.0885 7.74479 20.1406 7.73438C20.1927 7.72396 20.25 7.71875 20.3125 7.71875C20.5 7.71875 20.6823 7.75521 20.8594 7.82812C21.0365 7.89062 21.2188 7.92188 21.4062 7.92188C21.4583 7.92188 21.5 7.92188 21.5312 7.92188C21.5729 7.91146 21.6146 7.90104 21.6562 7.89062C21.8333 8.10938 22.0573 8.27604 22.3281 8.39062C22.3906 8.54688 22.4635 8.68229 22.5469 8.79688C22.6406 8.91146 22.7344 9.02604 22.8281 9.14062C22.9219 9.24479 23.0052 9.36458 23.0781 9.5C23.1615 9.625 23.2135 9.77604 23.2344 9.95312ZM21.6719 10.7656C21.6719 10.7135 21.6667 10.6667 21.6562 10.625C21.5521 10.5938 21.4531 10.5521 21.3594 10.5C21.2656 10.4479 21.1615 10.4219 21.0469 10.4219C20.974 10.4219 20.901 10.4375 20.8281 10.4688C20.8177 10.3958 20.7865 10.3438 20.7344 10.3125C20.6927 10.2812 20.6406 10.2552 20.5781 10.2344C20.526 10.2031 20.4688 10.1823 20.4062 10.1719C20.3542 10.151 20.3073 10.1198 20.2656 10.0781C20.2344 9.99479 20.1979 9.91146 20.1562 9.82812C20.125 9.73438 20.0625 9.66667 19.9688 9.625C19.875 9.71875 19.7656 9.79688 19.6406 9.85938C19.5156 9.91146 19.3854 9.96354 19.25 10.0156C19.125 10.0677 19 10.1302 18.875 10.2031C18.7604 10.276 18.6615 10.3646 18.5781 10.4688H18.2969C18.2344 10.5833 18.1458 10.6719 18.0312 10.7344C17.9167 10.7865 17.8177 10.8646 17.7344 10.9688C17.5677 11.0521 17.4115 11.1562 17.2656 11.2812C17.1302 11.3958 16.9948 11.5208 16.8594 11.6562C16.724 11.7812 16.5885 11.9115 16.4531 12.0469C16.3281 12.1823 16.1927 12.3073 16.0469 12.4219C15.9115 12.7135 15.7604 12.9688 15.5938 13.1875C15.4375 13.3958 15.2865 13.6094 15.1406 13.8281C15.0052 14.0469 14.8854 14.2865 14.7812 14.5469C14.6875 14.7969 14.6406 15.1094 14.6406 15.4844V15.6406C14.6406 15.6927 14.6458 15.7448 14.6562 15.7969C14.7917 15.9427 14.901 16.099 14.9844 16.2656C15.0781 16.4323 15.2292 16.5521 15.4375 16.625C15.6458 16.7083 15.8646 16.7448 16.0938 16.7344C16.3333 16.724 16.5625 16.75 16.7812 16.8125C17.2812 16.7188 17.7604 16.5677 18.2188 16.3594C18.6875 16.1406 19.1302 15.8802 19.5469 15.5781C19.6094 15.526 19.6823 15.474 19.7656 15.4219C19.849 15.3594 19.9167 15.2969 19.9688 15.2344C20.0208 15.1823 20.0625 15.125 20.0938 15.0625C20.1354 15 20.1771 14.9427 20.2188 14.8906C20.3021 14.7552 20.3958 14.6198 20.5 14.4844C20.6042 14.349 20.7135 14.224 20.8281 14.1094C20.8802 13.8802 20.9479 13.6615 21.0312 13.4531C21.1146 13.2344 21.1979 13.0208 21.2812 12.8125C21.3646 12.6042 21.4323 12.3906 21.4844 12.1719C21.5469 11.9531 21.5781 11.724 21.5781 11.4844C21.5781 11.4323 21.5729 11.375 21.5625 11.3125C21.5625 11.25 21.5573 11.1927 21.5469 11.1406C21.6302 11.026 21.6719 10.901 21.6719 10.7656ZM36.0312 16.1875C36.0312 16.2917 36 16.3802 35.9375 16.4531C35.8854 16.5156 35.8177 16.5729 35.7344 16.625C35.6615 16.6771 35.5833 16.724 35.5 16.7656C35.4271 16.8073 35.3594 16.8594 35.2969 16.9219C35.2552 16.9635 35.224 17.0156 35.2031 17.0781C35.1927 17.1302 35.1667 17.1667 35.125 17.1875C35.0625 17.2396 34.9948 17.2708 34.9219 17.2812C34.849 17.2917 34.7708 17.3073 34.6875 17.3281C34.6146 17.3385 34.5417 17.3594 34.4688 17.3906C34.3958 17.4115 34.3333 17.4583 34.2812 17.5312C33.7917 17.5833 33.3073 17.651 32.8281 17.7344C32.3594 17.8177 31.875 17.8594 31.375 17.8594C31.2812 17.8594 31.1771 17.8698 31.0625 17.8906C30.9583 17.901 30.8594 17.9115 30.7656 17.9219C30.5469 17.9427 30.3281 17.9583 30.1094 17.9688C29.901 17.9792 29.6875 17.9844 29.4688 17.9844C29.1667 17.9844 28.8646 17.974 28.5625 17.9531C28.2604 17.9219 27.9635 17.875 27.6719 17.8125C27.599 17.7604 27.5156 17.7188 27.4219 17.6875C27.3281 17.6562 27.2292 17.625 27.125 17.5938C27.0312 17.5625 26.9427 17.526 26.8594 17.4844C26.776 17.4427 26.7135 17.3802 26.6719 17.2969C26.5156 17.2865 26.375 17.2552 26.25 17.2031C26.1354 17.151 26.026 17.0938 25.9219 17.0312C25.8281 16.9583 25.7292 16.8854 25.625 16.8125C25.5208 16.7396 25.401 16.6771 25.2656 16.625C25.1615 16.4792 25.0521 16.3385 24.9375 16.2031C24.8333 16.0573 24.7031 15.9375 24.5469 15.8438C24.5156 15.6458 24.4635 15.4479 24.3906 15.25C24.3281 15.0521 24.2604 14.8594 24.1875 14.6719C24.125 14.474 24.0729 14.276 24.0312 14.0781C23.9792 13.8802 23.9531 13.6771 23.9531 13.4688C23.9531 13.3229 23.974 13.1458 24.0156 12.9375C24.0573 12.7292 24.1094 12.5208 24.1719 12.3125C24.2448 12.0938 24.3281 11.8906 24.4219 11.7031C24.5156 11.5156 24.6094 11.3646 24.7031 11.25C24.7344 11.2188 24.7708 11.1927 24.8125 11.1719C24.8542 11.151 24.8906 11.1198 24.9219 11.0781C25.0156 10.974 25.1146 10.8906 25.2188 10.8281C25.3229 10.7552 25.4323 10.6719 25.5469 10.5781C25.5885 10.5365 25.6198 10.4896 25.6406 10.4375C25.6719 10.3854 25.7135 10.3385 25.7656 10.2969C25.7969 10.276 25.8385 10.2708 25.8906 10.2812C25.9531 10.2917 26.0052 10.2812 26.0469 10.25C26.0885 10.2188 26.1094 10.1823 26.1094 10.1406C26.1094 10.099 26.125 10.0625 26.1562 10.0312C26.1667 10.0208 26.1979 10.0208 26.25 10.0312C26.3021 10.0312 26.3333 10.0312 26.3438 10.0312C26.4167 10.0312 26.5 9.98438 26.5938 9.89062C26.6875 9.78646 26.7656 9.71875 26.8281 9.6875C26.901 9.64583 26.974 9.61979 27.0469 9.60938C27.1198 9.58854 27.1979 9.55729 27.2812 9.51562C27.3958 9.45312 27.5052 9.40625 27.6094 9.375C27.724 9.33333 27.8385 9.28646 27.9531 9.23438C28.0156 9.21354 28.0729 9.17708 28.125 9.125C28.1771 9.07292 28.2292 9.03646 28.2812 9.01562C28.375 8.98438 28.474 8.96354 28.5781 8.95312C28.6927 8.93229 28.7969 8.91667 28.8906 8.90625C28.9948 8.88542 29.0938 8.86458 29.1875 8.84375C29.2917 8.8125 29.3854 8.76042 29.4688 8.6875H29.5938C29.7812 8.6875 29.9635 8.66146 30.1406 8.60938C30.3177 8.55729 30.5 8.53125 30.6875 8.53125C30.7396 8.53125 30.8177 8.54167 30.9219 8.5625C31.0052 8.51042 31.099 8.48438 31.2031 8.48438C31.3802 8.48438 31.5573 8.53125 31.7344 8.625C31.9115 8.70833 32.0938 8.75 32.2812 8.75H32.375C32.4167 8.75 32.4583 8.74479 32.5 8.73438C32.6146 8.84896 32.75 8.91146 32.9062 8.92188C33.0729 8.93229 33.2135 8.97917 33.3281 9.0625C33.401 9.125 33.4583 9.19792 33.5 9.28125C33.5521 9.36458 33.5938 9.45312 33.625 9.54688L33.7188 9.82812C33.75 9.92188 33.7917 10.0052 33.8438 10.0781C33.7917 10.4531 33.6354 10.7552 33.375 10.9844C33.125 11.2031 32.8073 11.3125 32.4219 11.3125C32.276 11.3125 32.151 11.2969 32.0469 11.2656C31.9531 11.224 31.8646 11.1823 31.7812 11.1406C31.7083 11.099 31.6302 11.0573 31.5469 11.0156C31.4635 10.974 31.3698 10.9427 31.2656 10.9219C31.3802 10.7135 31.4531 10.4896 31.4844 10.25C31.3698 10.1979 31.2552 10.1615 31.1406 10.1406C31.026 10.1198 30.9167 10.0833 30.8125 10.0312C30.5312 10.1042 30.2552 10.1562 29.9844 10.1875C29.724 10.2083 29.4792 10.3177 29.25 10.5156C29.1979 10.5052 29.1406 10.4948 29.0781 10.4844C29.026 10.474 28.974 10.4688 28.9219 10.4688C28.8594 10.4688 28.7344 10.5156 28.5469 10.6094C28.3594 10.6927 28.1562 10.7917 27.9375 10.9062C27.7292 11.0208 27.526 11.1354 27.3281 11.25C27.1406 11.3646 27.0104 11.4427 26.9375 11.4844C26.8542 11.5365 26.7812 11.599 26.7188 11.6719C26.6562 11.7448 26.5938 11.8229 26.5312 11.9062C26.4688 11.9792 26.4062 12.0521 26.3438 12.125C26.2812 12.1875 26.2031 12.2344 26.1094 12.2656C26.0885 12.3802 26.0521 12.4792 26 12.5625C25.9479 12.6458 25.8906 12.7344 25.8281 12.8281C25.8177 13.0156 25.7969 13.2031 25.7656 13.3906C25.7448 13.5781 25.7344 13.7656 25.7344 13.9531V14.1562C25.7344 14.2188 25.7448 14.276 25.7656 14.3281C25.8698 14.4635 25.9531 14.6146 26.0156 14.7812C26.0885 14.9479 26.2083 15.0625 26.375 15.125C26.3854 15.1667 26.3802 15.1927 26.3594 15.2031C26.349 15.2135 26.3385 15.2396 26.3281 15.2812C26.3906 15.3958 26.4688 15.4896 26.5625 15.5625C26.6667 15.625 26.7708 15.6927 26.875 15.7656C26.9792 15.8281 27.0781 15.8958 27.1719 15.9688C27.2656 16.0417 27.3385 16.1354 27.3906 16.25C27.5469 16.25 27.6927 16.276 27.8281 16.3281C27.974 16.3802 28.1094 16.4375 28.2344 16.5C28.3698 16.5625 28.4948 16.6198 28.6094 16.6719C28.7344 16.724 28.8594 16.75 28.9844 16.75C29.099 16.75 29.2031 16.7344 29.2969 16.7031C29.5677 16.7865 29.8385 16.849 30.1094 16.8906C30.3906 16.9219 30.6719 16.9375 30.9531 16.9375C31.2969 16.9375 31.6406 16.9167 31.9844 16.875C32.3281 16.8333 32.6719 16.7969 33.0156 16.7656C33.1406 16.7448 33.2604 16.7344 33.375 16.7344C33.4896 16.7344 33.6042 16.724 33.7188 16.7031C33.8646 16.6823 34 16.6146 34.125 16.5C34.2604 16.3854 34.3906 16.3021 34.5156 16.25C34.6302 16.3229 34.7656 16.3594 34.9219 16.3594C35.099 16.3594 35.2708 16.3333 35.4375 16.2812C35.6042 16.2188 35.776 16.1875 35.9531 16.1875H36.0312ZM47.5312 17.8594C47.5 18.0052 47.4323 18.125 47.3281 18.2188C47.2344 18.3021 47.1198 18.3698 46.9844 18.4219C46.849 18.474 46.7083 18.5104 46.5625 18.5312C46.4271 18.5417 46.3021 18.5469 46.1875 18.5469C46.1354 18.5469 46.0833 18.5469 46.0312 18.5469C45.9896 18.5365 45.9427 18.5312 45.8906 18.5312C45.8385 18.5312 45.8125 18.5573 45.8125 18.6094C45.8125 18.6615 45.7865 18.6979 45.7344 18.7188C45.6823 18.6979 45.6302 18.6823 45.5781 18.6719C45.526 18.6615 45.474 18.6562 45.4219 18.6562C45.349 18.6562 45.276 18.6615 45.2031 18.6719C45.1406 18.6823 45.0781 18.6875 45.0156 18.6875C44.9323 18.6875 44.8698 18.6771 44.8281 18.6562C44.7969 18.6354 44.7656 18.6146 44.7344 18.5938C44.7135 18.5625 44.6875 18.5312 44.6562 18.5C44.6354 18.4688 44.599 18.4427 44.5469 18.4219C44.474 18.3906 44.4115 18.3854 44.3594 18.4062C44.3177 18.4271 44.25 18.3958 44.1562 18.3125C44.0312 18.2083 43.9219 18.0833 43.8281 17.9375C43.7448 17.7812 43.6615 17.6198 43.5781 17.4531C43.4948 17.2865 43.4062 17.1198 43.3125 16.9531C43.2188 16.7865 43.1094 16.6406 42.9844 16.5156H42.8594C42.6719 16.5156 42.5417 16.5938 42.4688 16.75C42.4167 16.7188 42.3646 16.6823 42.3125 16.6406C42.2604 16.5885 42.2031 16.5469 42.1406 16.5156C41.901 16.5885 41.651 16.651 41.3906 16.7031C41.1302 16.7552 40.8698 16.7812 40.6094 16.7812H40.3906C40.3281 16.7812 40.2604 16.7708 40.1875 16.75C40.0833 16.7917 39.9896 16.8438 39.9062 16.9062C39.8229 16.9583 39.7292 16.9844 39.625 16.9844C39.5625 16.9844 39.4896 16.9635 39.4062 16.9219C39.3438 16.9219 39.3125 16.9479 39.3125 17C39.3229 17.0521 39.2917 17.0781 39.2188 17.0781H39.0781C38.9323 17.0781 38.7865 17.0833 38.6406 17.0938C38.5052 17.1042 38.3646 17.1094 38.2188 17.1094C38.0208 17.1094 37.8177 17.0833 37.6094 17.0312C37.5573 17.0625 37.5 17.0781 37.4375 17.0781C37.3958 17.099 37.3646 17.1354 37.3438 17.1875C37.3229 17.2292 37.3021 17.2708 37.2812 17.3125C37.2604 17.3438 37.2292 17.375 37.1875 17.4062C37.1562 17.4271 37.1094 17.4323 37.0469 17.4219C37.026 17.5469 36.974 17.6458 36.8906 17.7188C36.8073 17.7917 36.7656 17.901 36.7656 18.0469C36.651 18.1094 36.5573 18.1875 36.4844 18.2812C36.4115 18.375 36.3385 18.474 36.2656 18.5781C36.1927 18.6823 36.1146 18.7812 36.0312 18.875C35.9583 18.9688 35.8646 19.0417 35.75 19.0938C35.6979 19.1562 35.6823 19.2552 35.7031 19.3906C35.5885 19.4844 35.4479 19.5677 35.2812 19.6406C35.1146 19.7135 34.9583 19.75 34.8125 19.75C34.5104 19.75 34.3021 19.5885 34.1875 19.2656C34.1875 19.1615 34.1979 19.0521 34.2188 18.9375C34.2292 18.8125 34.25 18.6979 34.2812 18.5938C34.3125 18.4792 34.3594 18.3802 34.4219 18.2969C34.4844 18.2031 34.5729 18.1354 34.6875 18.0938C34.6875 18 34.6562 17.9375 34.5938 17.9062C34.5312 17.8646 34.5052 17.7969 34.5156 17.7031C34.7969 17.5677 35.0417 17.3906 35.25 17.1719C35.4583 16.9531 35.6458 16.724 35.8125 16.4844C35.9896 16.2344 36.1667 15.9844 36.3438 15.7344C36.5208 15.4844 36.7188 15.2604 36.9375 15.0625V14.7344C37.25 14.401 37.4531 14.026 37.5469 13.6094C37.6615 13.5885 37.7344 13.5365 37.7656 13.4531C37.8073 13.3698 37.8281 13.2708 37.8281 13.1562C37.8802 13.1562 37.9115 13.1354 37.9219 13.0938C37.9427 13.0417 37.9896 13.026 38.0625 13.0469C38.1562 12.7969 38.2604 12.5677 38.375 12.3594C38.4896 12.151 38.6042 11.9427 38.7188 11.7344C38.8333 11.5156 38.9323 11.2917 39.0156 11.0625C39.1094 10.8333 39.1771 10.5781 39.2188 10.2969C39.3646 10.2865 39.4427 10.2188 39.4531 10.0938C39.474 9.95833 39.4948 9.83854 39.5156 9.73438C39.6719 9.58854 39.7865 9.41667 39.8594 9.21875C39.9427 9.02083 40.0156 8.81771 40.0781 8.60938C40.1406 8.39062 40.2083 8.17708 40.2812 7.96875C40.3646 7.75 40.4792 7.55729 40.625 7.39062V7.34375C40.625 7.29167 40.6042 7.26042 40.5625 7.25C40.5208 7.22917 40.5 7.19271 40.5 7.14062C40.5104 7.13021 40.5156 7.11979 40.5156 7.10938C40.6406 7.05729 40.7344 6.97396 40.7969 6.85938C40.8594 6.73438 40.9531 6.64583 41.0781 6.59375C41.2969 6.77083 41.4896 6.88021 41.6562 6.92188C41.8229 6.95312 42.0417 6.97917 42.3125 7C42.4479 7.14583 42.5208 7.32292 42.5312 7.53125C42.5521 7.72917 42.5885 7.92708 42.6406 8.125C42.724 8.45833 42.8125 8.78646 42.9062 9.10938C43.0104 9.42188 43.0885 9.74479 43.1406 10.0781C43.1719 10.276 43.2292 10.4635 43.3125 10.6406C43.3958 10.8177 43.4531 11 43.4844 11.1875C43.5052 11.3333 43.5052 11.5 43.4844 11.6875C43.4635 11.8646 43.4844 12.0208 43.5469 12.1562L43.6562 12.4062C43.7083 12.5208 43.75 12.6406 43.7812 12.7656C43.8229 12.8906 43.8594 13.0156 43.8906 13.1406C43.974 13.4531 44.0469 13.7917 44.1094 14.1562C44.1823 14.5104 44.2917 14.8333 44.4375 15.125C44.4896 15.2292 44.5677 15.3021 44.6719 15.3438C44.7865 15.3854 44.9115 15.4167 45.0469 15.4375C45.1823 15.4479 45.3125 15.4531 45.4375 15.4531C45.5729 15.4427 45.6875 15.4375 45.7812 15.4375H45.9375C46 15.4375 46.0625 15.4479 46.125 15.4688C46.1667 15.5521 46.1875 15.625 46.1875 15.6875C46.1875 15.8125 46.1458 15.9115 46.0625 15.9844C45.9792 16.0573 45.9375 16.1406 45.9375 16.2344C45.9375 16.2865 45.9583 16.3438 46 16.4062C45.9583 16.3958 45.8958 16.3906 45.8125 16.3906C45.5729 16.3906 45.3385 16.4323 45.1094 16.5156C45.1927 16.6927 45.3021 16.8438 45.4375 16.9688C45.5833 17.0833 45.7344 17.1927 45.8906 17.2969C45.9948 17.2135 46.1042 17.1719 46.2188 17.1719C46.3438 17.1719 46.4583 17.2031 46.5625 17.2656C46.6771 17.3177 46.7969 17.3438 46.9219 17.3438C47.0156 17.3438 47.0833 17.3281 47.125 17.2969C47.2083 17.3906 47.276 17.4896 47.3281 17.5938C47.3802 17.6875 47.4479 17.776 47.5312 17.8594ZM42.6406 15.3594C42.6198 15.1823 42.5833 15.0573 42.5312 14.9844C42.4896 14.901 42.4531 14.8021 42.4219 14.6875C42.3802 14.5417 42.349 14.3854 42.3281 14.2188C42.3177 14.0521 42.2969 13.8906 42.2656 13.7344C42.1927 13.3802 42.1094 13.026 42.0156 12.6719C41.9323 12.3177 41.8229 11.974 41.6875 11.6406C41.7292 11.5781 41.75 11.5208 41.75 11.4688V11.4219C41.6562 11.3177 41.5885 11.1927 41.5469 11.0469C41.5052 10.8906 41.4635 10.7396 41.4219 10.5938C41.3906 10.4375 41.3438 10.2969 41.2812 10.1719C41.2292 10.0365 41.1406 9.92708 41.0156 9.84375C40.9844 9.90625 40.9688 9.97917 40.9688 10.0625C40.9688 10.1354 40.974 10.2031 40.9844 10.2656C41.0052 10.3281 41.0156 10.3958 41.0156 10.4688C40.9115 10.5208 40.8333 10.6042 40.7812 10.7188C40.7396 10.8229 40.6667 10.9062 40.5625 10.9688C40.4792 11.3021 40.3594 11.6198 40.2031 11.9219C40.0469 12.2135 39.8802 12.5052 39.7031 12.7969C39.5365 13.0885 39.375 13.3854 39.2188 13.6875C39.0625 13.9792 38.9375 14.2865 38.8438 14.6094C38.7083 14.7031 38.6146 14.8229 38.5625 14.9688C38.5208 15.1146 38.5 15.2604 38.5 15.4062C38.5938 15.4583 38.6979 15.4896 38.8125 15.5C38.9375 15.5 39.0573 15.5 39.1719 15.5C39.2865 15.5 39.3958 15.5104 39.5 15.5312C39.6042 15.5521 39.6979 15.6042 39.7812 15.6875C39.9167 15.6458 40.0625 15.6198 40.2188 15.6094C40.3854 15.5885 40.5208 15.5417 40.625 15.4688C40.8333 15.5417 41.0573 15.5781 41.2969 15.5781C41.4219 15.5781 41.5417 15.5677 41.6562 15.5469C41.7812 15.526 41.901 15.5 42.0156 15.4688C42.1094 15.4896 42.1823 15.526 42.2344 15.5781C42.2865 15.6198 42.3646 15.6354 42.4688 15.625C42.5208 15.5833 42.5521 15.5417 42.5625 15.5C42.5729 15.4479 42.599 15.401 42.6406 15.3594ZM65.8438 16.3438C65.8438 16.4792 65.8073 16.6042 65.7344 16.7188C65.6615 16.8229 65.6406 16.9479 65.6719 17.0938C65.6302 17.1667 65.5729 17.224 65.5 17.2656C65.4375 17.3073 65.4167 17.3854 65.4375 17.5C65.2188 17.6146 65.0156 17.7604 64.8281 17.9375C64.651 18.1042 64.4583 18.2656 64.25 18.4219C64.125 18.5156 64.0156 18.5833 63.9219 18.625C63.8385 18.6562 63.7344 18.7083 63.6094 18.7812L63.2188 19.0312C63.0417 19.125 62.8594 19.2188 62.6719 19.3125C62.4948 19.4062 62.3333 19.526 62.1875 19.6719C61.9688 19.6823 61.7448 19.7396 61.5156 19.8438C61.2865 19.9583 61.0677 20.0573 60.8594 20.1406C60.776 20.1719 60.6927 20.1927 60.6094 20.2031C60.526 20.224 60.4427 20.2552 60.3594 20.2969L60.1094 20.4062C59.9635 20.4792 59.7917 20.5521 59.5938 20.625C59.3958 20.7083 59.2188 20.75 59.0625 20.75C58.9688 20.7917 58.8906 20.8646 58.8281 20.9688C58.4844 21.0833 58.1302 21.1719 57.7656 21.2344C57.401 21.2969 57.0469 21.3958 56.7031 21.5312C56.5885 21.5833 56.4688 21.651 56.3438 21.7344C56.2292 21.8281 56.1042 21.8698 55.9688 21.8594C55.9375 21.9115 55.9167 21.974 55.9062 22.0469C55.8958 22.1198 55.8802 22.1927 55.8594 22.2656H55.8125C55.7708 22.2656 55.75 22.2448 55.75 22.2031C55.7604 22.1615 55.7448 22.1406 55.7031 22.1406C55.6719 22.1406 55.651 22.1458 55.6406 22.1562C55.5052 22.1875 55.375 22.2135 55.25 22.2344C55.1354 22.2552 55.0052 22.2656 54.8594 22.2656C54.776 22.2656 54.6406 22.2552 54.4531 22.2344C54.276 22.2135 54.1458 22.1875 54.0625 22.1562C54 22.125 53.9479 22.0677 53.9062 21.9844C53.8646 21.901 53.8229 21.8125 53.7812 21.7188C53.75 21.625 53.7188 21.526 53.6875 21.4219C53.6667 21.3281 53.6458 21.25 53.625 21.1875C53.6562 21.0729 53.7083 20.9792 53.7812 20.9062C53.8542 20.8333 53.9115 20.7396 53.9531 20.625C54.0469 20.6146 54.1406 20.599 54.2344 20.5781C54.3281 20.5573 54.4219 20.5521 54.5156 20.5625C54.8385 20.4688 55.1615 20.375 55.4844 20.2812C55.8177 20.1979 56.1458 20.1094 56.4688 20.0156C56.7917 19.9219 57.1094 19.8177 57.4219 19.7031C57.7344 19.5885 58.0365 19.4479 58.3281 19.2812H58.6562C58.8438 19.1771 59.0521 19.0885 59.2812 19.0156C59.5104 18.9427 59.6979 18.8229 59.8438 18.6562C60.1875 18.5833 60.5469 18.4844 60.9219 18.3594C61.2969 18.2344 61.6094 18.0365 61.8594 17.7656C62.0156 17.7448 62.151 17.7083 62.2656 17.6562C62.3802 17.5938 62.4896 17.5312 62.5938 17.4688L62.9062 17.2656C63.0104 17.1927 63.1302 17.1354 63.2656 17.0938C63.349 17.0104 63.4271 16.9219 63.5 16.8281C63.5729 16.7344 63.6615 16.6562 63.7656 16.5938C63.7344 16.4271 63.651 16.3021 63.5156 16.2188C63.3802 16.1354 63.2604 16.0365 63.1562 15.9219H62.8125C62.5417 15.7552 62.25 15.6302 61.9375 15.5469C61.6354 15.4531 61.3333 15.3542 61.0312 15.25C61.0104 15.2396 60.9844 15.2344 60.9531 15.2344C60.8802 15.2344 60.8333 15.2604 60.8125 15.3125C60.8021 15.3646 60.7604 15.3854 60.6875 15.375C60.5938 15.3125 60.4948 15.276 60.3906 15.2656C60.2865 15.2448 60.1771 15.2344 60.0625 15.2344C59.9167 15.2344 59.7708 15.2448 59.625 15.2656C59.4896 15.276 59.349 15.2812 59.2031 15.2812C59.1302 15.2812 59.0573 15.276 58.9844 15.2656C58.9115 15.2552 58.8385 15.2292 58.7656 15.1875H58.5625C58.3438 15.1875 58.125 15.1979 57.9062 15.2188C57.6979 15.2292 57.4896 15.2344 57.2812 15.2344C57.1667 15.2344 57.0573 15.2344 56.9531 15.2344C56.849 15.224 56.7448 15.2083 56.6406 15.1875C56.4219 15.2917 56.1875 15.3646 55.9375 15.4062C55.6875 15.4479 55.4271 15.4792 55.1562 15.5C54.8958 15.5208 54.6354 15.5417 54.375 15.5625C54.1146 15.5729 53.8646 15.599 53.625 15.6406C53.5625 15.6302 53.5 15.625 53.4375 15.625C53.3854 15.6146 53.3333 15.6094 53.2812 15.6094C53.2292 15.6094 53.1719 15.6146 53.1094 15.625C53.0573 15.625 53.0052 15.6302 52.9531 15.6406C52.8177 15.4948 52.651 15.3906 52.4531 15.3281C52.2656 15.2552 52.0781 15.2083 51.8906 15.1875C51.7448 15.0104 51.6354 14.8333 51.5625 14.6562C51.5 14.4688 51.4583 14.2604 51.4375 14.0312H51.5C51.5729 14.0312 51.6042 13.9948 51.5938 13.9219C51.5938 13.849 51.6198 13.7865 51.6719 13.7344C51.724 13.6719 51.7917 13.6302 51.875 13.6094C51.9688 13.5781 52.0573 13.5469 52.1406 13.5156C52.224 13.4844 52.3021 13.4479 52.375 13.4062C52.4583 13.3542 52.5208 13.276 52.5625 13.1719H52.7656C52.8073 13.1719 52.849 13.1771 52.8906 13.1875C52.9427 13.1875 52.9844 13.2031 53.0156 13.2344C53.0573 13.1927 53.1094 13.1562 53.1719 13.125C53.2344 13.0938 53.2917 13.0625 53.3438 13.0312C53.4062 13 53.4583 12.9635 53.5 12.9219C53.5417 12.8802 53.5677 12.8177 53.5781 12.7344C53.5885 12.7656 53.6146 12.7812 53.6562 12.7812C53.6979 12.7812 53.7344 12.7708 53.7656 12.75C53.8073 12.7292 53.8542 12.724 53.9062 12.7344C53.9583 12.5885 54.0469 12.5104 54.1719 12.5C54.2969 12.4896 54.4115 12.4531 54.5156 12.3906C54.5885 12.349 54.6562 12.3021 54.7188 12.25C54.7812 12.1875 54.849 12.1302 54.9219 12.0781L55.8594 11.3594L57.2969 10.2656C57.776 9.90104 58.2656 9.5625 58.7656 9.25C58.7865 9.1875 58.8177 9.14062 58.8594 9.10938C58.901 9.07812 58.9427 9.04688 58.9844 9.01562C59.026 8.97396 59.0573 8.93229 59.0781 8.89062C59.1094 8.84896 59.1198 8.78646 59.1094 8.70312C59.2552 8.67188 59.3646 8.61458 59.4375 8.53125C59.5208 8.44792 59.5938 8.35938 59.6562 8.26562C59.7188 8.16146 59.7812 8.0625 59.8438 7.96875C59.9167 7.86458 60.0104 7.78646 60.125 7.73438C60.1146 7.70312 60.1094 7.65625 60.1094 7.59375C60.1094 7.51042 60.1146 7.42708 60.125 7.34375C60.1458 7.26042 60.1875 7.1875 60.25 7.125C60.1562 6.90625 59.9948 6.75 59.7656 6.65625C59.5365 6.55208 59.3177 6.46354 59.1094 6.39062H59.0625C59.0104 6.39062 58.9792 6.41667 58.9688 6.46875C58.9688 6.51042 58.9427 6.54167 58.8906 6.5625C58.724 6.52083 58.5365 6.5 58.3281 6.5C58.1198 6.5 57.9115 6.51562 57.7031 6.54688C57.5052 6.57812 57.3021 6.58333 57.0938 6.5625C57.0625 6.60417 57.026 6.64583 56.9844 6.6875C56.9531 6.72917 56.9115 6.76562 56.8594 6.79688C56.6406 6.80729 56.4219 6.83854 56.2031 6.89062L55.5469 7.04688L55.1875 7.125C55.1354 7.14583 55.099 7.18229 55.0781 7.23438C55.0573 7.28646 55.0417 7.34375 55.0312 7.40625C54.9688 7.39583 54.9271 7.36979 54.9062 7.32812C54.8958 7.28646 54.8594 7.25521 54.7969 7.23438C54.5573 7.38021 54.2969 7.5 54.0156 7.59375C53.7448 7.6875 53.5 7.83333 53.2812 8.03125C53.2083 7.94792 53.1042 7.90625 52.9688 7.90625C52.8542 7.90625 52.7292 7.94271 52.5938 8.01562C52.4583 8.08854 52.375 8.18229 52.3438 8.29688C52.2396 8.27604 52.1615 8.26562 52.1094 8.26562C51.9948 8.26562 51.8958 8.29688 51.8125 8.35938C51.7396 8.42188 51.6667 8.49479 51.5938 8.57812C51.5208 8.65104 51.4427 8.72396 51.3594 8.79688C51.276 8.86979 51.1719 8.91146 51.0469 8.92188C51.0469 8.97396 51.0469 9.03125 51.0469 9.09375C51.0573 9.14583 51.0625 9.20312 51.0625 9.26562C51.0625 9.73438 51.0365 10.2031 50.9844 10.6719C50.9323 11.1302 50.9062 11.5938 50.9062 12.0625C50.9062 12.1667 50.9115 12.2708 50.9219 12.375C50.9323 12.4688 50.9375 12.5729 50.9375 12.6875C50.9375 12.7188 50.9115 12.7865 50.8594 12.8906C50.8177 12.9948 50.7865 13.0729 50.7656 13.125C50.8073 13.2396 50.8229 13.3542 50.8125 13.4688C50.8125 13.5833 50.8385 13.6927 50.8906 13.7969C50.7969 13.8802 50.75 13.9948 50.75 14.1406C50.75 14.2031 50.75 14.2656 50.75 14.3281C50.7604 14.3906 50.7656 14.4531 50.7656 14.5156V14.7031C50.7344 14.9115 50.7135 15.125 50.7031 15.3438C50.6927 15.5521 50.6875 15.7604 50.6875 15.9688C50.6875 16.0625 50.6875 16.224 50.6875 16.4531C50.6979 16.6719 50.7135 16.9219 50.7344 17.2031C50.7552 17.474 50.7865 17.7552 50.8281 18.0469C50.8698 18.3385 50.9219 18.6094 50.9844 18.8594C51.0573 19.099 51.1458 19.2969 51.25 19.4531C51.3542 19.6094 51.4792 19.6875 51.625 19.6875C51.6562 19.6875 51.6927 19.6823 51.7344 19.6719C51.7865 19.6615 51.8125 19.6354 51.8125 19.5938C51.8125 19.5521 51.8021 19.5156 51.7812 19.4844C51.7708 19.4531 51.7656 19.4167 51.7656 19.375L51.7812 19.3438C51.8646 19.3854 51.9531 19.4115 52.0469 19.4219C52.151 19.4323 52.2552 19.4427 52.3594 19.4531C52.4635 19.4635 52.5625 19.4792 52.6562 19.5C52.75 19.5312 52.8333 19.5885 52.9062 19.6719C52.8646 19.7552 52.8438 19.8438 52.8438 19.9375C52.8438 20.0625 52.875 20.1771 52.9375 20.2812C53 20.3958 53.0417 20.5104 53.0625 20.625C52.8646 20.6875 52.6823 20.7552 52.5156 20.8281C52.3594 20.9115 52.2031 20.9844 52.0469 21.0469C51.8906 21.1198 51.724 21.1823 51.5469 21.2344C51.3698 21.2969 51.1667 21.3385 50.9375 21.3594C50.7917 21.2656 50.6667 21.1823 50.5625 21.1094C50.4583 21.0365 50.3177 20.9896 50.1406 20.9688C49.8698 20.6042 49.6458 20.1927 49.4688 19.7344C49.2917 19.2865 49.151 18.8177 49.0469 18.3281C48.9531 17.8385 48.8854 17.349 48.8438 16.8594C48.8125 16.3594 48.7969 15.8906 48.7969 15.4531C48.7969 14.974 48.8125 14.5 48.8438 14.0312C48.8854 13.5521 48.9375 13.0729 49 12.5938C49.0208 12.4479 49.0417 12.3021 49.0625 12.1562C49.0833 12 49.1042 11.849 49.125 11.7031C49.1458 11.651 49.1615 11.5938 49.1719 11.5312C49.1927 11.4583 49.2031 11.3958 49.2031 11.3438C49.2031 11.1667 49.1979 10.9896 49.1875 10.8125C49.1771 10.6354 49.1719 10.4635 49.1719 10.2969C49.1719 10.0365 49.1875 9.77083 49.2188 9.5C49.2292 9.44792 49.2448 9.38021 49.2656 9.29688C49.2969 9.21354 49.3125 9.14062 49.3125 9.07812C49.3125 8.99479 49.2917 8.9375 49.25 8.90625C49.2083 8.875 49.1719 8.82292 49.1406 8.75C49.1719 8.64583 49.1979 8.54688 49.2188 8.45312C49.2396 8.34896 49.25 8.24479 49.25 8.14062C49.25 7.94271 49.2135 7.77083 49.1406 7.625C49.1927 7.35417 49.2708 7.08854 49.375 6.82812C49.4792 6.56771 49.6615 6.36979 49.9219 6.23438C50.1302 6.24479 50.3385 6.26562 50.5469 6.29688C50.7656 6.32812 50.9531 6.41667 51.1094 6.5625C51.1823 6.52083 51.2656 6.49479 51.3594 6.48438L51.6562 6.45312C51.7604 6.44271 51.8542 6.42708 51.9375 6.40625C52.0208 6.375 52.0938 6.31771 52.1562 6.23438C52.3646 6.19271 52.5885 6.13542 52.8281 6.0625C53.0677 5.97917 53.276 5.88542 53.4531 5.78125H53.7969C53.8698 5.72917 53.9531 5.69271 54.0469 5.67188L54.3438 5.59375C54.4479 5.5625 54.5417 5.53125 54.625 5.5C54.7188 5.46875 54.7917 5.41667 54.8438 5.34375H54.9062C55.1458 5.34375 55.3802 5.29167 55.6094 5.1875C55.8385 5.08333 56.0625 4.98958 56.2812 4.90625C56.3333 4.88542 56.4115 4.84896 56.5156 4.79688C56.6302 4.74479 56.7083 4.71875 56.75 4.71875C56.8958 4.69792 57.0417 4.6875 57.1875 4.6875C57.3333 4.67708 57.4792 4.65625 57.625 4.625C57.9583 4.57292 58.2865 4.51562 58.6094 4.45312C58.9427 4.38021 59.276 4.34375 59.6094 4.34375C59.724 4.34375 59.8281 4.34896 59.9219 4.35938C60.026 4.35938 60.1354 4.36458 60.25 4.375C60.2604 4.41667 60.2865 4.45312 60.3281 4.48438C60.3698 4.50521 60.4062 4.52604 60.4375 4.54688C60.4792 4.56771 60.5156 4.59896 60.5469 4.64062C60.5781 4.67188 60.5885 4.71875 60.5781 4.78125C60.599 4.80208 60.6198 4.8125 60.6406 4.8125C60.6719 4.8125 60.6979 4.79688 60.7188 4.76562C60.75 4.73438 60.7917 4.71875 60.8438 4.71875H60.9219C61.0573 4.86458 61.1875 5.00521 61.3125 5.14062C61.4479 5.26562 61.6146 5.36979 61.8125 5.45312C61.8958 5.76562 61.9948 6.07292 62.1094 6.375C62.224 6.67708 62.2812 7 62.2812 7.34375C62.2812 7.55208 62.25 7.75521 62.1875 7.95312C62.0417 8.02604 61.9375 8.14062 61.875 8.29688C61.8125 8.45312 61.7552 8.60417 61.7031 8.75C61.4115 8.89583 61.1667 9.08854 60.9688 9.32812C60.7708 9.56771 60.5677 9.80729 60.3594 10.0469H60.1094C60.0677 10.0469 60.0365 10.0625 60.0156 10.0938L59.875 10.25C59.7812 10.3333 59.6771 10.4167 59.5625 10.5C59.4583 10.5833 59.3802 10.6927 59.3281 10.8281C59.0052 11.0052 58.6927 11.2031 58.3906 11.4219C58.099 11.6406 57.8177 11.8698 57.5469 12.1094C57.4323 12.2031 57.3177 12.3125 57.2031 12.4375C57.0885 12.5521 56.974 12.651 56.8594 12.7344C56.7969 12.7865 56.724 12.8333 56.6406 12.875C56.5677 12.9062 56.5 12.9479 56.4375 13C56.3021 13.1042 56.1771 13.2135 56.0625 13.3281C55.9479 13.4323 55.8281 13.5312 55.7031 13.625C56.1719 13.6042 56.6458 13.5938 57.125 13.5938C57.6042 13.5833 58.0781 13.5729 58.5469 13.5625C58.7865 13.5625 59.0208 13.5573 59.25 13.5469C59.4792 13.526 59.7135 13.5156 59.9531 13.5156C59.9948 13.5156 60.0312 13.526 60.0625 13.5469C60.0938 13.5573 60.1302 13.5677 60.1719 13.5781C60.349 13.6094 60.5052 13.6458 60.6406 13.6875C61.1406 13.7812 61.6406 13.8646 62.1406 13.9375C62.6406 14.0104 63.1302 14.1302 63.6094 14.2969C63.7448 14.349 63.8438 14.4062 63.9062 14.4688C63.9792 14.5312 64.1042 14.5469 64.2812 14.5156C64.4271 14.6615 64.5833 14.776 64.75 14.8594C64.9271 14.9427 65.1042 15.0156 65.2812 15.0781C65.4167 15.2865 65.5417 15.4844 65.6562 15.6719C65.7812 15.8594 65.8438 16.0833 65.8438 16.3438ZM85.3438 3.3125C85.1979 3.52083 85.0417 3.71875 84.875 3.90625C84.7188 4.08333 84.5208 4.22396 84.2812 4.32812C84.1562 5.04688 84.0521 5.77083 83.9688 6.5C83.8958 7.22917 83.8125 7.95833 83.7188 8.6875C83.6354 9.41667 83.5365 10.1458 83.4219 10.875C83.3177 11.5938 83.1719 12.3073 82.9844 13.0156L83 13.2031C83.0208 13.4115 82.9948 13.6094 82.9219 13.7969C82.849 13.9844 82.8177 14.1875 82.8281 14.4062C82.6823 14.7708 82.5573 15.1771 82.4531 15.625C82.349 16.0625 82.2865 16.4792 82.2656 16.875C82.1615 17.0521 82.0729 17.2448 82 17.4531C81.9375 17.6615 81.8698 17.875 81.7969 18.0938C81.7344 18.3021 81.6615 18.5052 81.5781 18.7031C81.4948 18.8906 81.3854 19.0625 81.25 19.2188C81.2188 19.4583 81.1562 19.6823 81.0625 19.8906C80.9792 20.1094 80.8802 20.3229 80.7656 20.5312C80.6615 20.7396 80.5573 20.9427 80.4531 21.1406C80.3594 21.349 80.2917 21.5677 80.25 21.7969C80.0729 22.0677 79.8958 22.3281 79.7188 22.5781C79.5417 22.8385 79.3802 23.1094 79.2344 23.3906C79.099 23.4531 78.9792 23.5208 78.875 23.5938C78.7812 23.6771 78.6875 23.75 78.5938 23.8125C78.5 23.8854 78.3906 23.9479 78.2656 24C78.151 24.0521 78.0104 24.0781 77.8438 24.0781C77.8021 24.0781 77.7604 24.0729 77.7188 24.0625C77.6875 24.0625 77.651 24.0625 77.6094 24.0625C77.4635 23.9479 77.3177 23.8333 77.1719 23.7188C77.026 23.6146 76.8698 23.5208 76.7031 23.4375C76.7031 23.375 76.6927 23.3229 76.6719 23.2812C76.6615 23.2396 76.651 23.1979 76.6406 23.1562C76.6302 23.1146 76.625 23.0729 76.625 23.0312C76.625 22.9896 76.6354 22.9375 76.6562 22.875C76.5625 22.8125 76.4531 22.6979 76.3281 22.5312C76.2135 22.375 76.1562 22.2396 76.1562 22.125C76.1562 22.0208 76.1927 21.9688 76.2656 21.9688C76.2448 21.8646 76.2083 21.7604 76.1562 21.6562C76.1146 21.5625 76.0938 21.4635 76.0938 21.3594C76.0938 21.2865 76.1146 21.2083 76.1562 21.125C76.0417 20.8542 75.9375 20.5729 75.8438 20.2812C75.75 20 75.6875 19.7083 75.6562 19.4062C75.5521 19.2708 75.4688 19.1146 75.4062 18.9375C75.3542 18.75 75.3125 18.5573 75.2812 18.3594C75.25 18.1615 75.224 17.9688 75.2031 17.7812C75.1823 17.5833 75.1562 17.401 75.125 17.2344C75.1146 17.1719 75.0885 17.0729 75.0469 16.9375C75.0052 16.7917 74.9844 16.6927 74.9844 16.6406C74.9844 16.5781 74.9948 16.5312 75.0156 16.5C75.0469 16.4688 75.0729 16.4271 75.0938 16.375C74.9688 15.875 74.8646 15.3698 74.7812 14.8594C74.7083 14.349 74.6354 13.8385 74.5625 13.3281C74.5 12.8177 74.4219 12.3125 74.3281 11.8125C74.2448 11.3021 74.125 10.8021 73.9688 10.3125V10.1719C73.9688 9.83854 73.8385 9.57292 73.5781 9.375C73.6302 9.21875 73.6562 9.08854 73.6562 8.98438C73.6562 8.84896 73.6354 8.71875 73.5938 8.59375C73.5625 8.46875 73.526 8.34375 73.4844 8.21875C73.4427 8.09375 73.4115 7.96875 73.3906 7.84375C73.3802 7.71875 73.3906 7.59375 73.4219 7.46875C73.3073 7.34375 73.2135 7.20833 73.1406 7.0625C73.0677 6.91667 72.974 6.79167 72.8594 6.6875L72.8438 6.59375C72.8438 6.54167 72.8594 6.49479 72.8906 6.45312C72.9115 6.41146 72.9219 6.36458 72.9219 6.3125C72.9219 6.23958 72.9062 6.17708 72.875 6.125C72.8333 6.07292 72.7917 6.02604 72.75 5.98438C72.6979 5.94271 72.6562 5.90104 72.625 5.85938C72.5833 5.81771 72.5625 5.77083 72.5625 5.71875C72.5625 5.59375 72.6042 5.49479 72.6875 5.42188C72.7708 5.34896 72.8646 5.28646 72.9688 5.23438C73.0729 5.17188 73.1719 5.10938 73.2656 5.04688C73.3698 4.98438 73.4375 4.89583 73.4688 4.78125C73.5521 4.80208 73.6354 4.81771 73.7188 4.82812C73.8021 4.82812 73.8854 4.84896 73.9688 4.89062C73.9792 4.88021 73.9844 4.86458 73.9844 4.84375C73.9844 4.8125 73.9323 4.78646 73.8281 4.76562C73.7344 4.73438 73.6719 4.69792 73.6406 4.65625C73.724 4.63542 73.7865 4.625 73.8281 4.625C74.0365 4.625 74.2344 4.67708 74.4219 4.78125C74.6198 4.88542 74.8073 4.99479 74.9844 5.10938C75.0052 5.20312 75.0104 5.30208 75 5.40625C74.9896 5.5 75.0208 5.58854 75.0938 5.67188C75.0833 5.72396 75.0781 5.77083 75.0781 5.8125C75.0885 5.85417 75.0938 5.89583 75.0938 5.9375C75.0938 5.98958 75.0833 6.03646 75.0625 6.07812C75.0521 6.10938 75.026 6.125 74.9844 6.125C75.0573 6.25 75.1042 6.40104 75.125 6.57812C75.1562 6.75521 75.1823 6.9375 75.2031 7.125C75.2344 7.3125 75.2708 7.49479 75.3125 7.67188C75.3542 7.84896 75.4323 8.00521 75.5469 8.14062C75.526 8.20312 75.5104 8.26562 75.5 8.32812C75.5 8.39062 75.5 8.45833 75.5 8.53125C75.5 8.86458 75.5417 9.19271 75.625 9.51562C75.7083 9.83854 75.75 10.1667 75.75 10.5C75.75 10.6979 75.7188 10.8802 75.6562 11.0469C75.6562 11.1406 75.6875 11.2188 75.75 11.2812C75.8125 11.3333 75.8542 11.4062 75.875 11.5C75.8229 11.625 75.7969 11.7448 75.7969 11.8594C75.7969 12.099 75.8438 12.3281 75.9375 12.5469C76.0312 12.7552 76.0781 12.974 76.0781 13.2031C76.0781 13.276 76.0677 13.3438 76.0469 13.4062C76.026 13.4688 76.0052 13.526 75.9844 13.5781C76.0781 13.6719 76.125 13.7917 76.125 13.9375C76.1354 14.0833 76.1823 14.2031 76.2656 14.2969C76.2552 14.349 76.2448 14.401 76.2344 14.4531C76.2344 14.5052 76.2083 14.5469 76.1562 14.5781C76.2083 14.651 76.2344 14.75 76.2344 14.875C76.2448 14.9896 76.2917 15.0573 76.375 15.0781C76.3542 15.1302 76.3385 15.1771 76.3281 15.2188C76.3177 15.2604 76.3125 15.3073 76.3125 15.3594C76.3125 15.474 76.3281 15.5781 76.3594 15.6719L76.4531 15.9531C76.4844 16.0469 76.5052 16.1458 76.5156 16.25C76.5365 16.3542 76.526 16.4688 76.4844 16.5938C76.526 16.6562 76.5573 16.7292 76.5781 16.8125C76.6094 16.8958 76.6354 16.9844 76.6562 17.0781C76.6771 17.1615 76.7083 17.2396 76.75 17.3125C76.7917 17.375 76.8542 17.4167 76.9375 17.4375C76.9479 17.5 76.9219 17.5312 76.8594 17.5312C76.8073 17.5312 76.7812 17.5573 76.7812 17.6094C76.7812 17.6927 76.8125 17.7969 76.875 17.9219C76.9375 18.0365 76.9948 18.1198 77.0469 18.1719C77.0365 18.2135 77.0312 18.2552 77.0312 18.2969V18.4375C77.0312 18.5833 77.0521 18.7344 77.0938 18.8906C77.1354 19.0365 77.1719 19.1823 77.2031 19.3281C77.2448 19.4844 77.276 19.6354 77.2969 19.7812C77.3177 19.9271 77.3073 20.0625 77.2656 20.1875C77.349 20.3333 77.4219 20.4896 77.4844 20.6562C77.5469 20.8229 77.6458 20.9635 77.7812 21.0781C77.7812 21.2552 77.8177 21.4219 77.8906 21.5781C77.9635 21.7448 78.0573 21.901 78.1719 22.0469C78.276 22.0469 78.3542 22.0104 78.4062 21.9375C78.4583 21.875 78.5 21.8021 78.5312 21.7188C78.5625 21.6354 78.599 21.5573 78.6406 21.4844C78.6823 21.4115 78.75 21.3698 78.8438 21.3594C78.8542 21.2552 78.8802 21.1667 78.9219 21.0938C78.974 21.0312 79.0208 20.9635 79.0625 20.8906C79.1146 20.8177 79.1562 20.7396 79.1875 20.6562C79.2292 20.5729 79.2448 20.4688 79.2344 20.3438L79.4062 20.2969C79.4583 20.0156 79.5365 19.7604 79.6406 19.5312C79.7552 19.3125 79.8802 19.0833 80.0156 18.8438V18.7656C80.0156 18.6615 80.0312 18.5729 80.0625 18.5C80.0938 18.4271 80.099 18.3333 80.0781 18.2188C80.151 18.1979 80.2031 18.1562 80.2344 18.0938C80.2656 18.0312 80.2917 17.9688 80.3125 17.9062C80.3333 17.8333 80.3542 17.7656 80.375 17.7031C80.4062 17.6302 80.4531 17.5781 80.5156 17.5469V17.4219C80.5052 17.3281 80.5104 17.2396 80.5312 17.1562C80.5625 17.0625 80.5573 16.9688 80.5156 16.875C80.599 16.8438 80.6615 16.7917 80.7031 16.7188C80.7448 16.6458 80.776 16.5677 80.7969 16.4844C80.8281 16.401 80.8438 16.3125 80.8438 16.2188C80.8542 16.125 80.8594 16.0417 80.8594 15.9688C80.9323 15.875 80.9844 15.7656 81.0156 15.6406C81.0469 15.5052 81.0729 15.3698 81.0938 15.2344C81.1146 15.099 81.1406 14.9688 81.1719 14.8438C81.2135 14.7188 81.276 14.6094 81.3594 14.5156C81.3385 14.4635 81.3281 14.4167 81.3281 14.375V14.2344C81.3281 14.0365 81.3594 13.8594 81.4219 13.7031C81.4844 13.5365 81.5417 13.3594 81.5938 13.1719C81.7292 12.7031 81.8229 12.224 81.875 11.7344C81.9375 11.2344 82.026 10.7448 82.1406 10.2656C82.151 10.2135 82.1719 10.1302 82.2031 10.0156C82.2344 9.90104 82.2656 9.78646 82.2969 9.67188C82.3281 9.54688 82.3542 9.4375 82.375 9.34375C82.4062 9.23958 82.4219 9.17188 82.4219 9.14062C82.4219 9.05729 82.401 9 82.3594 8.96875C82.3281 8.9375 82.3125 8.88542 82.3125 8.8125C82.375 8.71875 82.4167 8.59896 82.4375 8.45312C82.4583 8.30729 82.474 8.15625 82.4844 8C82.4948 7.83333 82.4948 7.67708 82.4844 7.53125C82.4844 7.375 82.4844 7.23958 82.4844 7.125C82.4844 7.01042 82.5104 6.86458 82.5625 6.6875C82.6146 6.51042 82.651 6.35417 82.6719 6.21875C82.724 5.86458 82.7552 5.51562 82.7656 5.17188C82.7865 4.81771 82.8073 4.46354 82.8281 4.10938C82.901 4.06771 82.9531 4.01562 82.9844 3.95312C83.0156 3.88021 83.0312 3.80729 83.0312 3.73438C83.0312 3.61979 83.0156 3.51042 82.9844 3.40625C82.9635 3.30208 82.9531 3.19271 82.9531 3.07812C82.9531 3.02604 82.9583 2.97396 82.9688 2.92188C82.9792 2.85938 83.0052 2.80729 83.0469 2.76562C83.0365 2.69271 83.026 2.61979 83.0156 2.54688C83.0156 2.47396 82.9896 2.41146 82.9375 2.35938C82.9896 2.22396 83.0156 2.08854 83.0156 1.95312C83.0156 1.82812 83 1.70312 82.9688 1.57812C82.9479 1.45312 82.9375 1.32292 82.9375 1.1875C82.9375 0.927083 83.0469 0.739583 83.2656 0.625H83.4844C83.5885 0.625 83.6927 0.619792 83.7969 0.609375C83.901 0.598958 84.0104 0.567708 84.125 0.515625C84.2604 0.661458 84.401 0.822917 84.5469 1C84.6927 1.16667 84.8177 1.34896 84.9219 1.54688C85.026 1.74479 85.1042 1.94792 85.1562 2.15625C85.2083 2.36458 85.2135 2.58333 85.1719 2.8125C85.2135 2.89583 85.2396 2.97917 85.25 3.0625C85.2604 3.14583 85.2917 3.22917 85.3438 3.3125ZM82.1562 11.8281C82.1146 11.8177 82.0833 11.8021 82.0625 11.7812C82.0521 11.75 82.0208 11.7292 81.9688 11.7188V11.8906H82.0938L82.1562 11.8281ZM97.0156 17.8594C96.9844 18.0052 96.9167 18.125 96.8125 18.2188C96.7188 18.3021 96.6042 18.3698 96.4688 18.4219C96.3333 18.474 96.1927 18.5104 96.0469 18.5312C95.9115 18.5417 95.7865 18.5469 95.6719 18.5469C95.6198 18.5469 95.5677 18.5469 95.5156 18.5469C95.474 18.5365 95.4271 18.5312 95.375 18.5312C95.3229 18.5312 95.2969 18.5573 95.2969 18.6094C95.2969 18.6615 95.2708 18.6979 95.2188 18.7188C95.1667 18.6979 95.1146 18.6823 95.0625 18.6719C95.0104 18.6615 94.9583 18.6562 94.9062 18.6562C94.8333 18.6562 94.7604 18.6615 94.6875 18.6719C94.625 18.6823 94.5625 18.6875 94.5 18.6875C94.4167 18.6875 94.3542 18.6771 94.3125 18.6562C94.2812 18.6354 94.25 18.6146 94.2188 18.5938C94.1979 18.5625 94.1719 18.5312 94.1406 18.5C94.1198 18.4688 94.0833 18.4427 94.0312 18.4219C93.9583 18.3906 93.8958 18.3854 93.8438 18.4062C93.8021 18.4271 93.7344 18.3958 93.6406 18.3125C93.5156 18.2083 93.4062 18.0833 93.3125 17.9375C93.2292 17.7812 93.1458 17.6198 93.0625 17.4531C92.9792 17.2865 92.8906 17.1198 92.7969 16.9531C92.7031 16.7865 92.5938 16.6406 92.4688 16.5156H92.3438C92.1562 16.5156 92.026 16.5938 91.9531 16.75C91.901 16.7188 91.849 16.6823 91.7969 16.6406C91.7448 16.5885 91.6875 16.5469 91.625 16.5156C91.3854 16.5885 91.1354 16.651 90.875 16.7031C90.6146 16.7552 90.3542 16.7812 90.0938 16.7812H89.875C89.8125 16.7812 89.7448 16.7708 89.6719 16.75C89.5677 16.7917 89.474 16.8438 89.3906 16.9062C89.3073 16.9583 89.2135 16.9844 89.1094 16.9844C89.0469 16.9844 88.974 16.9635 88.8906 16.9219C88.8281 16.9219 88.7969 16.9479 88.7969 17C88.8073 17.0521 88.776 17.0781 88.7031 17.0781H88.5625C88.4167 17.0781 88.2708 17.0833 88.125 17.0938C87.9896 17.1042 87.849 17.1094 87.7031 17.1094C87.5052 17.1094 87.3021 17.0833 87.0938 17.0312C87.0417 17.0625 86.9844 17.0781 86.9219 17.0781C86.8802 17.099 86.849 17.1354 86.8281 17.1875C86.8073 17.2292 86.7865 17.2708 86.7656 17.3125C86.7448 17.3438 86.7135 17.375 86.6719 17.4062C86.6406 17.4271 86.5938 17.4323 86.5312 17.4219C86.5104 17.5469 86.4583 17.6458 86.375 17.7188C86.2917 17.7917 86.25 17.901 86.25 18.0469C86.1354 18.1094 86.0417 18.1875 85.9688 18.2812C85.8958 18.375 85.8229 18.474 85.75 18.5781C85.6771 18.6823 85.599 18.7812 85.5156 18.875C85.4427 18.9688 85.349 19.0417 85.2344 19.0938C85.1823 19.1562 85.1667 19.2552 85.1875 19.3906C85.0729 19.4844 84.9323 19.5677 84.7656 19.6406C84.599 19.7135 84.4427 19.75 84.2969 19.75C83.9948 19.75 83.7865 19.5885 83.6719 19.2656C83.6719 19.1615 83.6823 19.0521 83.7031 18.9375C83.7135 18.8125 83.7344 18.6979 83.7656 18.5938C83.7969 18.4792 83.8438 18.3802 83.9062 18.2969C83.9688 18.2031 84.0573 18.1354 84.1719 18.0938C84.1719 18 84.1406 17.9375 84.0781 17.9062C84.0156 17.8646 83.9896 17.7969 84 17.7031C84.2812 17.5677 84.526 17.3906 84.7344 17.1719C84.9427 16.9531 85.1302 16.724 85.2969 16.4844C85.474 16.2344 85.651 15.9844 85.8281 15.7344C86.0052 15.4844 86.2031 15.2604 86.4219 15.0625V14.7344C86.7344 14.401 86.9375 14.026 87.0312 13.6094C87.1458 13.5885 87.2188 13.5365 87.25 13.4531C87.2917 13.3698 87.3125 13.2708 87.3125 13.1562C87.3646 13.1562 87.3958 13.1354 87.4062 13.0938C87.4271 13.0417 87.474 13.026 87.5469 13.0469C87.6406 12.7969 87.7448 12.5677 87.8594 12.3594C87.974 12.151 88.0885 11.9427 88.2031 11.7344C88.3177 11.5156 88.4167 11.2917 88.5 11.0625C88.5938 10.8333 88.6615 10.5781 88.7031 10.2969C88.849 10.2865 88.9271 10.2188 88.9375 10.0938C88.9583 9.95833 88.9792 9.83854 89 9.73438C89.1562 9.58854 89.2708 9.41667 89.3438 9.21875C89.4271 9.02083 89.5 8.81771 89.5625 8.60938C89.625 8.39062 89.6927 8.17708 89.7656 7.96875C89.849 7.75 89.9635 7.55729 90.1094 7.39062V7.34375C90.1094 7.29167 90.0885 7.26042 90.0469 7.25C90.0052 7.22917 89.9844 7.19271 89.9844 7.14062C89.9948 7.13021 90 7.11979 90 7.10938C90.125 7.05729 90.2188 6.97396 90.2812 6.85938C90.3438 6.73438 90.4375 6.64583 90.5625 6.59375C90.7812 6.77083 90.974 6.88021 91.1406 6.92188C91.3073 6.95312 91.526 6.97917 91.7969 7C91.9323 7.14583 92.0052 7.32292 92.0156 7.53125C92.0365 7.72917 92.0729 7.92708 92.125 8.125C92.2083 8.45833 92.2969 8.78646 92.3906 9.10938C92.4948 9.42188 92.5729 9.74479 92.625 10.0781C92.6562 10.276 92.7135 10.4635 92.7969 10.6406C92.8802 10.8177 92.9375 11 92.9688 11.1875C92.9896 11.3333 92.9896 11.5 92.9688 11.6875C92.9479 11.8646 92.9688 12.0208 93.0312 12.1562L93.1406 12.4062C93.1927 12.5208 93.2344 12.6406 93.2656 12.7656C93.3073 12.8906 93.3438 13.0156 93.375 13.1406C93.4583 13.4531 93.5312 13.7917 93.5938 14.1562C93.6667 14.5104 93.776 14.8333 93.9219 15.125C93.974 15.2292 94.0521 15.3021 94.1562 15.3438C94.2708 15.3854 94.3958 15.4167 94.5312 15.4375C94.6667 15.4479 94.7969 15.4531 94.9219 15.4531C95.0573 15.4427 95.1719 15.4375 95.2656 15.4375H95.4219C95.4844 15.4375 95.5469 15.4479 95.6094 15.4688C95.651 15.5521 95.6719 15.625 95.6719 15.6875C95.6719 15.8125 95.6302 15.9115 95.5469 15.9844C95.4635 16.0573 95.4219 16.1406 95.4219 16.2344C95.4219 16.2865 95.4427 16.3438 95.4844 16.4062C95.4427 16.3958 95.3802 16.3906 95.2969 16.3906C95.0573 16.3906 94.8229 16.4323 94.5938 16.5156C94.6771 16.6927 94.7865 16.8438 94.9219 16.9688C95.0677 17.0833 95.2188 17.1927 95.375 17.2969C95.4792 17.2135 95.5885 17.1719 95.7031 17.1719C95.8281 17.1719 95.9427 17.2031 96.0469 17.2656C96.1615 17.3177 96.2812 17.3438 96.4062 17.3438C96.5 17.3438 96.5677 17.3281 96.6094 17.2969C96.6927 17.3906 96.7604 17.4896 96.8125 17.5938C96.8646 17.6875 96.9323 17.776 97.0156 17.8594ZM92.125 15.3594C92.1042 15.1823 92.0677 15.0573 92.0156 14.9844C91.974 14.901 91.9375 14.8021 91.9062 14.6875C91.8646 14.5417 91.8333 14.3854 91.8125 14.2188C91.8021 14.0521 91.7812 13.8906 91.75 13.7344C91.6771 13.3802 91.5938 13.026 91.5 12.6719C91.4167 12.3177 91.3073 11.974 91.1719 11.6406C91.2135 11.5781 91.2344 11.5208 91.2344 11.4688V11.4219C91.1406 11.3177 91.0729 11.1927 91.0312 11.0469C90.9896 10.8906 90.9479 10.7396 90.9062 10.5938C90.875 10.4375 90.8281 10.2969 90.7656 10.1719C90.7135 10.0365 90.625 9.92708 90.5 9.84375C90.4688 9.90625 90.4531 9.97917 90.4531 10.0625C90.4531 10.1354 90.4583 10.2031 90.4688 10.2656C90.4896 10.3281 90.5 10.3958 90.5 10.4688C90.3958 10.5208 90.3177 10.6042 90.2656 10.7188C90.224 10.8229 90.151 10.9062 90.0469 10.9688C89.9635 11.3021 89.8438 11.6198 89.6875 11.9219C89.5312 12.2135 89.3646 12.5052 89.1875 12.7969C89.0208 13.0885 88.8594 13.3854 88.7031 13.6875C88.5469 13.9792 88.4219 14.2865 88.3281 14.6094C88.1927 14.7031 88.099 14.8229 88.0469 14.9688C88.0052 15.1146 87.9844 15.2604 87.9844 15.4062C88.0781 15.4583 88.1823 15.4896 88.2969 15.5C88.4219 15.5 88.5417 15.5 88.6562 15.5C88.7708 15.5 88.8802 15.5104 88.9844 15.5312C89.0885 15.5521 89.1823 15.6042 89.2656 15.6875C89.401 15.6458 89.5469 15.6198 89.7031 15.6094C89.8698 15.5885 90.0052 15.5417 90.1094 15.4688C90.3177 15.5417 90.5417 15.5781 90.7812 15.5781C90.9062 15.5781 91.026 15.5677 91.1406 15.5469C91.2656 15.526 91.3854 15.5 91.5 15.4688C91.5938 15.4896 91.6667 15.526 91.7188 15.5781C91.7708 15.6198 91.849 15.6354 91.9531 15.625C92.0052 15.5833 92.0365 15.5417 92.0469 15.5C92.0573 15.4479 92.0833 15.401 92.125 15.3594ZM106.625 16.4688C106.583 16.625 106.516 16.7552 106.422 16.8594C106.328 16.9635 106.219 17.0573 106.094 17.1406C105.979 17.224 105.854 17.3021 105.719 17.375C105.583 17.4375 105.453 17.5104 105.328 17.5938H105.125C104.688 17.5938 104.349 17.4896 104.109 17.2812C103.88 17.0625 103.703 16.7969 103.578 16.4844C103.453 16.1615 103.359 15.8177 103.297 15.4531C103.245 15.0885 103.177 14.7552 103.094 14.4531C102.969 14.5573 102.865 14.6823 102.781 14.8281C102.698 14.9635 102.609 15.099 102.516 15.2344C102.432 15.3698 102.333 15.4948 102.219 15.6094C102.115 15.724 101.974 15.8021 101.797 15.8438C101.766 15.9167 101.729 15.9896 101.688 16.0625C101.656 16.1354 101.635 16.2135 101.625 16.2969C101.396 16.4219 101.188 16.5677 101 16.7344C100.812 16.901 100.625 17.0729 100.438 17.25C100.25 17.4271 100.057 17.599 99.8594 17.7656C99.6719 17.9219 99.4583 18.0521 99.2188 18.1562C99.2083 18.1458 99.1875 18.1406 99.1562 18.1406C99.0312 18.1406 98.9167 18.1719 98.8125 18.2344C98.7083 18.2865 98.5938 18.3125 98.4688 18.3125C98.3854 18.3125 98.3073 18.2969 98.2344 18.2656C98.1719 18.2344 98.1042 18.1979 98.0312 18.1562C97.9688 18.1146 97.901 18.0833 97.8281 18.0625C97.7552 18.0417 97.6771 18.0365 97.5938 18.0469C97.4896 17.8594 97.349 17.6875 97.1719 17.5312C97.0052 17.3646 96.901 17.1771 96.8594 16.9688C96.8385 16.875 96.8229 16.7812 96.8125 16.6875C96.8125 16.5833 96.8021 16.4792 96.7812 16.375C96.75 16.2188 96.7083 16.0625 96.6562 15.9062C96.6042 15.7396 96.5625 15.5729 96.5312 15.4062C96.5833 15.125 96.6354 14.8177 96.6875 14.4844C96.7292 14.1406 96.7812 13.8021 96.8438 13.4688C96.9167 13.125 97.0104 12.8021 97.125 12.5C97.25 12.1875 97.4062 11.9219 97.5938 11.7031L97.5781 11.5938C97.5781 11.4271 97.6094 11.2708 97.6719 11.125C97.7344 10.9792 97.8021 10.8385 97.875 10.7031C97.9479 10.5677 98.0104 10.4323 98.0625 10.2969C98.1146 10.1615 98.125 10.0104 98.0938 9.84375C98.2188 9.78125 98.349 9.72917 98.4844 9.6875C98.6198 9.64583 98.7604 9.625 98.9062 9.625C99.0417 9.625 99.1667 9.64583 99.2812 9.6875C99.2604 9.77083 99.2969 9.82292 99.3906 9.84375V9.89062C99.3906 10.1094 99.3646 10.3229 99.3125 10.5312C99.2604 10.7396 99.1979 10.9479 99.125 11.1562C99.0521 11.3542 98.9792 11.5573 98.9062 11.7656C98.8438 11.9635 98.7969 12.1667 98.7656 12.375C98.724 12.3854 98.6927 12.4062 98.6719 12.4375C98.6615 12.4688 98.651 12.5 98.6406 12.5312C98.6302 12.5625 98.6146 12.5885 98.5938 12.6094C98.5729 12.6302 98.5417 12.6406 98.5 12.6406C98.4375 13.0052 98.3698 13.3698 98.2969 13.7344C98.2344 14.0885 98.2031 14.4479 98.2031 14.8125C98.2031 15.0312 98.224 15.2552 98.2656 15.4844C98.3073 15.7135 98.3854 15.9323 98.5 16.1406L98.5625 16.125C98.6771 16.125 98.7656 16.151 98.8281 16.2031C98.901 16.2552 98.9948 16.3073 99.1094 16.3594C99.1927 16.3385 99.2708 16.3125 99.3438 16.2812C99.4167 16.2396 99.4479 16.1719 99.4375 16.0781C99.5729 16.0677 99.6875 16.0365 99.7812 15.9844C99.875 15.9219 99.9583 15.8542 100.031 15.7812L100.266 15.5625C100.349 15.4896 100.448 15.4375 100.562 15.4062C100.562 15.3438 100.578 15.2969 100.609 15.2656L100.703 15.1719C100.734 15.1406 100.755 15.1094 100.766 15.0781C100.786 15.0365 100.792 14.9792 100.781 14.9062C100.906 14.8958 101 14.8646 101.062 14.8125C101.135 14.7604 101.198 14.7031 101.25 14.6406C101.312 14.5677 101.37 14.4948 101.422 14.4219C101.474 14.349 101.542 14.2865 101.625 14.2344C101.698 14.0781 101.797 13.8698 101.922 13.6094C102.057 13.349 102.188 13.0781 102.312 12.7969C102.448 12.5156 102.562 12.25 102.656 12C102.76 11.7396 102.812 11.5417 102.812 11.4062C102.812 11.3542 102.797 11.3073 102.766 11.2656C102.745 11.224 102.74 11.1771 102.75 11.125V11.0781C102.833 10.974 102.906 10.8594 102.969 10.7344C103.042 10.6094 103.115 10.4896 103.188 10.375C103.271 10.2604 103.359 10.1562 103.453 10.0625C103.547 9.96875 103.667 9.89583 103.812 9.84375C103.979 9.89583 104.146 9.93229 104.312 9.95312C104.49 9.97396 104.656 10.0156 104.812 10.0781C104.823 10.3385 104.849 10.6406 104.891 10.9844C104.932 11.3281 105.005 11.6198 105.109 11.8594C105.109 11.9948 105.104 12.125 105.094 12.25C105.094 12.375 105.094 12.5 105.094 12.625C105.094 12.8333 105.099 13.0469 105.109 13.2656C105.13 13.4844 105.167 13.6875 105.219 13.875C105.146 14.0312 105.109 14.1979 105.109 14.375C105.109 14.6146 105.146 14.8438 105.219 15.0625C105.292 15.2708 105.344 15.4948 105.375 15.7344C105.51 15.9219 105.688 16.0156 105.906 16.0156C105.958 16.0156 106 16.0104 106.031 16C106.073 15.9896 106.115 15.974 106.156 15.9531C106.24 16.0469 106.312 16.1406 106.375 16.2344C106.448 16.3177 106.531 16.3958 106.625 16.4688ZM115.656 14.9844C115.656 15.099 115.615 15.1875 115.531 15.25C115.448 15.3021 115.406 15.375 115.406 15.4688C115.406 15.5104 115.427 15.5625 115.469 15.625C115.323 15.625 115.224 15.6719 115.172 15.7656C115.12 15.8594 115.068 15.9635 115.016 16.0781H114.812C114.76 16.0781 114.719 16.0885 114.688 16.1094C114.656 16.1302 114.625 16.1615 114.594 16.2031C114.573 16.2344 114.542 16.2865 114.5 16.3594C114.302 16.401 114.109 16.4688 113.922 16.5625C113.745 16.6458 113.568 16.7396 113.391 16.8438C113.224 16.9375 113.052 17.0365 112.875 17.1406C112.698 17.2344 112.516 17.3125 112.328 17.375C112.234 17.5312 112.099 17.6562 111.922 17.75H111.875C111.823 17.7604 111.776 17.7552 111.734 17.7344C111.703 17.7031 111.661 17.6875 111.609 17.6875C111.578 17.6875 111.557 17.6927 111.547 17.7031C111.234 17.9115 110.885 18.0156 110.5 18.0156C110.396 18.0156 110.297 18.0104 110.203 18C110.109 17.9792 110.01 17.9688 109.906 17.9688C109.875 17.9688 109.854 17.9792 109.844 18L109.812 18.0625C109.802 18.0833 109.786 18.1042 109.766 18.125C109.755 18.1458 109.719 18.1562 109.656 18.1562C109.542 18.1562 109.427 18.1406 109.312 18.1094C109.198 18.0781 109.078 18.0729 108.953 18.0938C108.714 17.9583 108.526 17.8281 108.391 17.7031C108.255 17.5781 108.13 17.3906 108.016 17.1406C107.964 17.026 107.891 16.9167 107.797 16.8125C107.714 16.7083 107.651 16.5938 107.609 16.4688C107.599 16.4271 107.583 16.3542 107.562 16.25C107.542 16.1354 107.521 16.0156 107.5 15.8906C107.479 15.7656 107.458 15.6458 107.438 15.5312C107.427 15.4167 107.422 15.3385 107.422 15.2969C107.422 15.1719 107.427 15.0521 107.438 14.9375C107.458 14.8125 107.479 14.6875 107.5 14.5625C107.562 14.1667 107.604 13.7708 107.625 13.375C107.656 12.9688 107.745 12.5781 107.891 12.2031C107.87 12.0885 107.859 11.9792 107.859 11.875V11.5312C107.859 11.3333 107.833 11.1667 107.781 11.0312C107.865 10.8958 107.906 10.7448 107.906 10.5781C107.906 10.3906 107.828 10.2812 107.672 10.25V10.2031C107.672 9.98438 107.599 9.8125 107.453 9.6875C107.453 9.32292 107.542 9.05208 107.719 8.875C107.906 8.6875 108.151 8.52604 108.453 8.39062C108.495 8.32812 108.51 8.27604 108.5 8.23438C108.573 8.25521 108.641 8.27604 108.703 8.29688C108.766 8.31771 108.828 8.32812 108.891 8.32812C108.995 8.32812 109.089 8.3125 109.172 8.28125C109.203 8.40625 109.281 8.48438 109.406 8.51562C109.542 8.53646 109.651 8.56771 109.734 8.60938V8.8125C109.734 9.13542 109.812 9.44271 109.969 9.73438C109.927 9.81771 109.901 9.90625 109.891 10C109.88 10.0938 109.875 10.1823 109.875 10.2656C109.875 10.3906 109.88 10.5156 109.891 10.6406C109.901 10.7656 109.906 10.8854 109.906 11C109.906 11.125 109.891 11.25 109.859 11.375C109.839 11.5 109.781 11.6094 109.688 11.7031C109.677 11.8385 109.667 11.9948 109.656 12.1719C109.656 12.3385 109.646 12.5104 109.625 12.6875C109.615 12.8646 109.589 13.0365 109.547 13.2031C109.505 13.3698 109.443 13.5052 109.359 13.6094C109.349 13.7656 109.339 13.9271 109.328 14.0938C109.328 14.25 109.328 14.401 109.328 14.5469C109.328 14.776 109.339 15.0469 109.359 15.3594C109.391 15.6719 109.464 15.9323 109.578 16.1406C109.63 16.224 109.729 16.2865 109.875 16.3281C110.031 16.3698 110.156 16.3906 110.25 16.3906C110.365 16.3906 110.479 16.375 110.594 16.3438C110.719 16.3021 110.807 16.2344 110.859 16.1406C110.922 16.151 110.964 16.1823 110.984 16.2344C111.005 16.2865 111.042 16.3281 111.094 16.3594C111.688 16.1094 112.281 15.8698 112.875 15.6406C113.469 15.4115 114.052 15.1458 114.625 14.8438C114.708 14.8854 114.797 14.9062 114.891 14.9062C114.995 14.9062 115.099 14.8958 115.203 14.875C115.307 14.8542 115.411 14.8438 115.516 14.8438H115.625C115.646 14.9062 115.656 14.9531 115.656 14.9844ZM127.719 8.95312C127.677 9.08854 127.609 9.21354 127.516 9.32812L127.25 9.65625C127.167 9.76042 127.094 9.875 127.031 10C126.979 10.1146 126.964 10.25 126.984 10.4062C126.964 10.4062 126.938 10.4062 126.906 10.4062C126.875 10.3958 126.849 10.3906 126.828 10.3906C126.661 10.3906 126.531 10.4323 126.438 10.5156C126.354 10.5885 126.24 10.651 126.094 10.7031C126.073 10.6406 126.047 10.5833 126.016 10.5312C125.984 10.4688 125.938 10.4271 125.875 10.4062C125.625 10.4583 125.375 10.5 125.125 10.5312C124.875 10.5521 124.625 10.5833 124.375 10.625C124.26 10.6458 124.146 10.6771 124.031 10.7188C123.917 10.75 123.797 10.7812 123.672 10.8125C123.609 10.8333 123.542 10.8438 123.469 10.8438C123.396 10.8333 123.323 10.8333 123.25 10.8438C123 10.8542 122.729 10.875 122.438 10.9062C122.146 10.9271 121.885 11.0052 121.656 11.1406C121.552 11.1198 121.443 11.1042 121.328 11.0938C121.214 11.0833 121.099 11.0781 120.984 11.0781C120.734 11.0781 120.458 11.1042 120.156 11.1562C119.865 11.1979 119.604 11.2865 119.375 11.4219C119.323 11.401 119.266 11.3854 119.203 11.375C119.151 11.3646 119.089 11.3594 119.016 11.3594C118.995 11.3594 118.979 11.3646 118.969 11.375C118.958 11.375 118.943 11.375 118.922 11.375C118.911 11.4688 118.922 11.5625 118.953 11.6562C118.995 11.7396 119.062 11.8073 119.156 11.8594C119.115 11.974 119.094 12.099 119.094 12.2344C119.094 12.4115 119.104 12.5885 119.125 12.7656C119.156 12.9427 119.172 13.1198 119.172 13.2969C119.172 13.4948 119.146 13.651 119.094 13.7656C119.198 14.0781 119.25 14.4115 119.25 14.7656C119.25 14.8906 119.24 15.0156 119.219 15.1406C119.208 15.2552 119.203 15.3802 119.203 15.5156C119.203 15.6302 119.245 15.724 119.328 15.7969C119.411 15.8594 119.453 15.9479 119.453 16.0625C119.453 16.1042 119.443 16.1458 119.422 16.1875C119.568 16.1562 119.708 16.1146 119.844 16.0625C119.979 16 120.12 15.9688 120.266 15.9688C120.349 15.9688 120.427 15.9844 120.5 16.0156C120.583 16.0469 120.656 16.0885 120.719 16.1406C120.708 16.1927 120.698 16.25 120.688 16.3125C120.688 16.375 120.688 16.4375 120.688 16.5C120.688 16.6146 120.688 16.724 120.688 16.8281C120.698 16.9219 120.708 17.026 120.719 17.1406C120.635 17.2865 120.536 17.4167 120.422 17.5312C120.318 17.6458 120.245 17.7917 120.203 17.9688C120.047 17.9688 119.906 18.0052 119.781 18.0781C119.667 18.1406 119.557 18.2135 119.453 18.2969C119.349 18.3698 119.245 18.4427 119.141 18.5156C119.036 18.5781 118.922 18.6094 118.797 18.6094C118.641 18.6094 118.531 18.5885 118.469 18.5469C118.406 18.4948 118.359 18.4427 118.328 18.3906C118.297 18.3385 118.266 18.2917 118.234 18.25C118.214 18.2083 118.161 18.1927 118.078 18.2031C118.057 18.0677 118.016 17.9427 117.953 17.8281C117.891 17.7031 117.823 17.5833 117.75 17.4688C117.688 17.3542 117.62 17.2396 117.547 17.125C117.484 17 117.438 16.875 117.406 16.75C117.344 16.4792 117.318 16.1979 117.328 15.9062C117.339 15.6146 117.292 15.3333 117.188 15.0625C117.208 14.9167 117.224 14.7708 117.234 14.625C117.245 14.4688 117.25 14.3177 117.25 14.1719C117.25 13.8802 117.24 13.5938 117.219 13.3125C117.208 13.0208 117.198 12.724 117.188 12.4219C117.115 12.3281 117.068 12.224 117.047 12.1094C117.036 11.9844 117.026 11.8646 117.016 11.75C116.984 11.7188 116.948 11.6875 116.906 11.6562C116.875 11.625 116.854 11.5833 116.844 11.5312C116.76 11.5104 116.698 11.5 116.656 11.5C116.51 11.5 116.385 11.5365 116.281 11.6094C116.188 11.6719 116.099 11.7031 116.016 11.7031C115.932 11.7031 115.854 11.6927 115.781 11.6719C115.708 11.651 115.635 11.6406 115.562 11.6406C115.5 11.6406 115.464 11.6562 115.453 11.6875C115.453 11.7083 115.432 11.7292 115.391 11.75C115.359 11.7708 115.286 11.7917 115.172 11.8125C115.057 11.8333 114.927 11.8542 114.781 11.875C114.646 11.8854 114.51 11.8958 114.375 11.9062C114.25 11.9167 114.167 11.9219 114.125 11.9219C113.958 11.9219 113.833 11.8906 113.75 11.8281C113.656 11.7552 113.547 11.6771 113.422 11.5938C113.443 11.5312 113.453 11.4896 113.453 11.4688C113.453 11.3646 113.422 11.2812 113.359 11.2188C113.297 11.1458 113.266 11.0833 113.266 11.0312C113.266 10.9167 113.312 10.8281 113.406 10.7656C113.49 10.7031 113.536 10.6042 113.547 10.4688C113.786 10.3646 114.031 10.2865 114.281 10.2344C114.531 10.1823 114.786 10.1406 115.047 10.1094C115.307 10.0781 115.562 10.0417 115.812 10C116.073 9.95833 116.328 9.89062 116.578 9.79688C116.651 9.80729 116.719 9.81771 116.781 9.82812C116.854 9.82812 116.927 9.82812 117 9.82812C117.312 9.82812 117.62 9.79688 117.922 9.73438C118.234 9.66146 118.552 9.625 118.875 9.625C118.958 9.625 119.042 9.63021 119.125 9.64062C119.208 9.65104 119.292 9.66667 119.375 9.6875C119.792 9.625 120.203 9.55729 120.609 9.48438C121.026 9.41146 121.453 9.34896 121.891 9.29688C122.099 9.27604 122.302 9.26042 122.5 9.25C122.708 9.22917 122.917 9.20312 123.125 9.17188C123.198 9.16146 123.25 9.14583 123.281 9.125C123.323 9.09375 123.344 9.03646 123.344 8.95312C123.438 8.99479 123.542 9.01562 123.656 9.01562C123.833 9.01562 124.005 8.98438 124.172 8.92188C124.339 8.85938 124.51 8.82812 124.688 8.82812C124.729 8.82812 124.766 8.83333 124.797 8.84375C124.828 8.84375 124.859 8.84375 124.891 8.84375C124.964 8.84375 125 8.8125 125 8.75C125.01 8.67708 125.062 8.63021 125.156 8.60938C125.229 8.58854 125.333 8.57292 125.469 8.5625C125.604 8.55208 125.745 8.54167 125.891 8.53125C126.047 8.51042 126.188 8.48958 126.312 8.46875C126.448 8.4375 126.547 8.39583 126.609 8.34375L126.719 8.17188C126.906 8.18229 127.042 8.26562 127.125 8.42188C127.219 8.56771 127.271 8.72917 127.281 8.90625C127.323 8.94792 127.38 8.96875 127.453 8.96875C127.536 8.95833 127.609 8.95312 127.672 8.95312H127.719Z" fill="#FAFAFA"/>
<path d="M4 32C17.4545 28.546 39.5 20.5 74.5 27" stroke="#3B82F6" stroke-linecap="round"/>
</svg>
